<svg xmlns="http://www.w3.org/2000/svg" xmlns:xlink="http://www.w3.org/1999/xlink" width="600" height="400" viewBox="0 0 2400 1600">
<defs>
  <clipPath id="clip630">
    <rect x="0" y="0" width="2400" height="1600"></rect>
  </clipPath>
</defs>
<path clip-path="url(#clip630)" d="M0 1600 L2400 1600 L2400 8.88178e-14 L0 8.88178e-14  Z" fill="#ffffff" fill-rule="evenodd" fill-opacity="1"></path>
<defs>
  <clipPath id="clip631">
    <rect x="480" y="0" width="1681" height="1600"></rect>
  </clipPath>
</defs>
<path clip-path="url(#clip630)" d="M205.121 1423.18 L2352.76 1423.18 L2352.76 123.472 L205.121 123.472  Z" fill="#ffffff" fill-rule="evenodd" fill-opacity="1"></path>
<defs>
  <clipPath id="clip632">
    <rect x="205" y="123" width="2149" height="1301"></rect>
  </clipPath>
</defs>
<polyline clip-path="url(#clip632)" style="stroke:#000000; stroke-linecap:round; stroke-linejoin:round; stroke-width:2; stroke-opacity:0.1; fill:none" points="556.829,1423.18 556.829,123.472 "></polyline>
<polyline clip-path="url(#clip632)" style="stroke:#000000; stroke-linecap:round; stroke-linejoin:round; stroke-width:2; stroke-opacity:0.1; fill:none" points="954.391,1423.18 954.391,123.472 "></polyline>
<polyline clip-path="url(#clip632)" style="stroke:#000000; stroke-linecap:round; stroke-linejoin:round; stroke-width:2; stroke-opacity:0.1; fill:none" points="1351.95,1423.18 1351.95,123.472 "></polyline>
<polyline clip-path="url(#clip632)" style="stroke:#000000; stroke-linecap:round; stroke-linejoin:round; stroke-width:2; stroke-opacity:0.1; fill:none" points="1749.51,1423.18 1749.51,123.472 "></polyline>
<polyline clip-path="url(#clip632)" style="stroke:#000000; stroke-linecap:round; stroke-linejoin:round; stroke-width:2; stroke-opacity:0.1; fill:none" points="2147.08,1423.18 2147.08,123.472 "></polyline>
<polyline clip-path="url(#clip632)" style="stroke:#000000; stroke-linecap:round; stroke-linejoin:round; stroke-width:2; stroke-opacity:0.1; fill:none" points="205.121,1423.18 2352.76,1423.18 "></polyline>
<polyline clip-path="url(#clip632)" style="stroke:#000000; stroke-linecap:round; stroke-linejoin:round; stroke-width:2; stroke-opacity:0.1; fill:none" points="205.121,1208.35 2352.76,1208.35 "></polyline>
<polyline clip-path="url(#clip632)" style="stroke:#000000; stroke-linecap:round; stroke-linejoin:round; stroke-width:2; stroke-opacity:0.1; fill:none" points="205.121,993.524 2352.76,993.524 "></polyline>
<polyline clip-path="url(#clip632)" style="stroke:#000000; stroke-linecap:round; stroke-linejoin:round; stroke-width:2; stroke-opacity:0.1; fill:none" points="205.121,778.697 2352.76,778.697 "></polyline>
<polyline clip-path="url(#clip632)" style="stroke:#000000; stroke-linecap:round; stroke-linejoin:round; stroke-width:2; stroke-opacity:0.1; fill:none" points="205.121,563.869 2352.76,563.869 "></polyline>
<polyline clip-path="url(#clip632)" style="stroke:#000000; stroke-linecap:round; stroke-linejoin:round; stroke-width:2; stroke-opacity:0.1; fill:none" points="205.121,349.041 2352.76,349.041 "></polyline>
<polyline clip-path="url(#clip632)" style="stroke:#000000; stroke-linecap:round; stroke-linejoin:round; stroke-width:2; stroke-opacity:0.1; fill:none" points="205.121,134.214 2352.76,134.214 "></polyline>
<polyline clip-path="url(#clip630)" style="stroke:#000000; stroke-linecap:round; stroke-linejoin:round; stroke-width:4; stroke-opacity:1; fill:none" points="205.121,1423.18 2352.76,1423.18 "></polyline>
<polyline clip-path="url(#clip630)" style="stroke:#000000; stroke-linecap:round; stroke-linejoin:round; stroke-width:4; stroke-opacity:1; fill:none" points="556.829,1423.18 556.829,1404.28 "></polyline>
<polyline clip-path="url(#clip630)" style="stroke:#000000; stroke-linecap:round; stroke-linejoin:round; stroke-width:4; stroke-opacity:1; fill:none" points="954.391,1423.18 954.391,1404.28 "></polyline>
<polyline clip-path="url(#clip630)" style="stroke:#000000; stroke-linecap:round; stroke-linejoin:round; stroke-width:4; stroke-opacity:1; fill:none" points="1351.95,1423.18 1351.95,1404.28 "></polyline>
<polyline clip-path="url(#clip630)" style="stroke:#000000; stroke-linecap:round; stroke-linejoin:round; stroke-width:4; stroke-opacity:1; fill:none" points="1749.51,1423.18 1749.51,1404.28 "></polyline>
<polyline clip-path="url(#clip630)" style="stroke:#000000; stroke-linecap:round; stroke-linejoin:round; stroke-width:4; stroke-opacity:1; fill:none" points="2147.08,1423.18 2147.08,1404.28 "></polyline>
<path clip-path="url(#clip630)" d="M545.672 1466.95 Q549.029 1467.66 550.904 1469.93 Q552.802 1472.2 552.802 1475.53 Q552.802 1480.65 549.283 1483.45 Q545.765 1486.25 539.283 1486.25 Q537.107 1486.25 534.792 1485.81 Q532.501 1485.39 530.047 1484.54 L530.047 1480.02 Q531.992 1481.16 534.306 1481.74 Q536.621 1482.32 539.144 1482.32 Q543.542 1482.32 545.834 1480.58 Q548.149 1478.84 548.149 1475.53 Q548.149 1472.48 545.996 1470.77 Q543.867 1469.03 540.047 1469.03 L536.019 1469.03 L536.019 1465.19 L540.232 1465.19 Q543.681 1465.19 545.51 1463.82 Q547.339 1462.43 547.339 1459.84 Q547.339 1457.18 545.441 1455.77 Q543.566 1454.33 540.047 1454.33 Q538.126 1454.33 535.927 1454.75 Q533.728 1455.16 531.089 1456.04 L531.089 1451.88 Q533.751 1451.14 536.066 1450.77 Q538.404 1450.39 540.464 1450.39 Q545.788 1450.39 548.89 1452.83 Q551.991 1455.23 551.991 1459.35 Q551.991 1462.22 550.348 1464.21 Q548.704 1466.18 545.672 1466.95 Z" fill="#000000" fill-rule="nonzero" fill-opacity="1"></path><path clip-path="url(#clip630)" d="M571.667 1454.1 Q568.056 1454.1 566.228 1457.66 Q564.422 1461.2 564.422 1468.33 Q564.422 1475.44 566.228 1479.01 Q568.056 1482.55 571.667 1482.55 Q575.302 1482.55 577.107 1479.01 Q578.936 1475.44 578.936 1468.33 Q578.936 1461.2 577.107 1457.66 Q575.302 1454.1 571.667 1454.1 M571.667 1450.39 Q577.477 1450.39 580.533 1455 Q583.612 1459.58 583.612 1468.33 Q583.612 1477.06 580.533 1481.67 Q577.477 1486.25 571.667 1486.25 Q565.857 1486.25 562.778 1481.67 Q559.723 1477.06 559.723 1468.33 Q559.723 1459.58 562.778 1455 Q565.857 1450.39 571.667 1450.39 Z" fill="#000000" fill-rule="nonzero" fill-opacity="1"></path><path clip-path="url(#clip630)" d="M939.796 1466.44 Q936.648 1466.44 934.796 1468.59 Q932.968 1470.74 932.968 1474.49 Q932.968 1478.22 934.796 1480.39 Q936.648 1482.55 939.796 1482.55 Q942.944 1482.55 944.773 1480.39 Q946.625 1478.22 946.625 1474.49 Q946.625 1470.74 944.773 1468.59 Q942.944 1466.44 939.796 1466.44 M949.079 1451.78 L949.079 1456.04 Q947.319 1455.21 945.514 1454.77 Q943.731 1454.33 941.972 1454.33 Q937.342 1454.33 934.889 1457.45 Q932.458 1460.58 932.111 1466.9 Q933.477 1464.89 935.537 1463.82 Q937.597 1462.73 940.074 1462.73 Q945.282 1462.73 948.292 1465.9 Q951.324 1469.05 951.324 1474.49 Q951.324 1479.82 948.176 1483.03 Q945.028 1486.25 939.796 1486.25 Q933.801 1486.25 930.63 1481.67 Q927.458 1477.06 927.458 1468.33 Q927.458 1460.14 931.347 1455.28 Q935.236 1450.39 941.787 1450.39 Q943.546 1450.39 945.329 1450.74 Q947.134 1451.09 949.079 1451.78 Z" fill="#000000" fill-rule="nonzero" fill-opacity="1"></path><path clip-path="url(#clip630)" d="M969.379 1454.1 Q965.768 1454.1 963.94 1457.66 Q962.134 1461.2 962.134 1468.33 Q962.134 1475.44 963.94 1479.01 Q965.768 1482.55 969.379 1482.55 Q973.014 1482.55 974.819 1479.01 Q976.648 1475.44 976.648 1468.33 Q976.648 1461.2 974.819 1457.66 Q973.014 1454.1 969.379 1454.1 M969.379 1450.39 Q975.19 1450.39 978.245 1455 Q981.324 1459.58 981.324 1468.33 Q981.324 1477.06 978.245 1481.67 Q975.19 1486.25 969.379 1486.25 Q963.569 1486.25 960.491 1481.67 Q957.435 1477.06 957.435 1468.33 Q957.435 1459.58 960.491 1455 Q963.569 1450.39 969.379 1450.39 Z" fill="#000000" fill-rule="nonzero" fill-opacity="1"></path><path clip-path="url(#clip630)" d="M1327.08 1484.86 L1327.08 1480.6 Q1328.84 1481.44 1330.64 1481.88 Q1332.45 1482.32 1334.19 1482.32 Q1338.82 1482.32 1341.25 1479.21 Q1343.7 1476.09 1344.05 1469.75 Q1342.7 1471.74 1340.64 1472.8 Q1338.58 1473.87 1336.08 1473.87 Q1330.9 1473.87 1327.87 1470.74 Q1324.86 1467.59 1324.86 1462.15 Q1324.86 1456.83 1328.01 1453.61 Q1331.15 1450.39 1336.39 1450.39 Q1342.38 1450.39 1345.53 1455 Q1348.7 1459.58 1348.7 1468.33 Q1348.7 1476.51 1344.81 1481.39 Q1340.95 1486.25 1334.39 1486.25 Q1332.64 1486.25 1330.83 1485.9 Q1329.02 1485.56 1327.08 1484.86 M1336.39 1470.21 Q1339.53 1470.21 1341.36 1468.06 Q1343.21 1465.9 1343.21 1462.15 Q1343.21 1458.43 1341.36 1456.27 Q1339.53 1454.1 1336.39 1454.1 Q1333.24 1454.1 1331.39 1456.27 Q1329.56 1458.43 1329.56 1462.15 Q1329.56 1465.9 1331.39 1468.06 Q1333.24 1470.21 1336.39 1470.21 Z" fill="#000000" fill-rule="nonzero" fill-opacity="1"></path><path clip-path="url(#clip630)" d="M1367.1 1454.1 Q1363.49 1454.1 1361.66 1457.66 Q1359.86 1461.2 1359.86 1468.33 Q1359.86 1475.44 1361.66 1479.01 Q1363.49 1482.55 1367.1 1482.55 Q1370.74 1482.55 1372.54 1479.01 Q1374.37 1475.44 1374.37 1468.33 Q1374.37 1461.2 1372.54 1457.66 Q1370.74 1454.1 1367.1 1454.1 M1367.1 1450.39 Q1372.91 1450.39 1375.97 1455 Q1379.05 1459.58 1379.05 1468.33 Q1379.05 1477.06 1375.97 1481.67 Q1372.91 1486.25 1367.1 1486.25 Q1361.29 1486.25 1358.21 1481.67 Q1355.16 1477.06 1355.16 1468.33 Q1355.16 1459.58 1358.21 1455 Q1361.29 1450.39 1367.1 1450.39 Z" fill="#000000" fill-rule="nonzero" fill-opacity="1"></path><path clip-path="url(#clip630)" d="M1709.12 1481.64 L1716.76 1481.64 L1716.76 1455.28 L1708.45 1456.95 L1708.45 1452.69 L1716.71 1451.02 L1721.39 1451.02 L1721.39 1481.64 L1729.03 1481.64 L1729.03 1485.58 L1709.12 1485.58 L1709.12 1481.64 Z" fill="#000000" fill-rule="nonzero" fill-opacity="1"></path><path clip-path="url(#clip630)" d="M1742.5 1481.64 L1758.82 1481.64 L1758.82 1485.58 L1736.88 1485.58 L1736.88 1481.64 Q1739.54 1478.89 1744.12 1474.26 Q1748.73 1469.61 1749.91 1468.27 Q1752.15 1465.74 1753.03 1464.01 Q1753.94 1462.25 1753.94 1460.56 Q1753.94 1457.8 1751.99 1456.07 Q1750.07 1454.33 1746.97 1454.33 Q1744.77 1454.33 1742.32 1455.09 Q1739.88 1455.86 1737.11 1457.41 L1737.11 1452.69 Q1739.93 1451.55 1742.38 1450.97 Q1744.84 1450.39 1746.88 1450.39 Q1752.25 1450.39 1755.44 1453.08 Q1758.63 1455.77 1758.63 1460.26 Q1758.63 1462.39 1757.82 1464.31 Q1757.04 1466.2 1754.93 1468.8 Q1754.35 1469.47 1751.25 1472.69 Q1748.15 1475.88 1742.5 1481.64 Z" fill="#000000" fill-rule="nonzero" fill-opacity="1"></path><path clip-path="url(#clip630)" d="M1778.63 1454.1 Q1775.02 1454.1 1773.19 1457.66 Q1771.39 1461.2 1771.39 1468.33 Q1771.39 1475.44 1773.19 1479.01 Q1775.02 1482.55 1778.63 1482.55 Q1782.27 1482.55 1784.07 1479.01 Q1785.9 1475.44 1785.9 1468.33 Q1785.9 1461.2 1784.07 1457.66 Q1782.27 1454.1 1778.63 1454.1 M1778.63 1450.39 Q1784.44 1450.39 1787.5 1455 Q1790.58 1459.58 1790.58 1468.33 Q1790.58 1477.06 1787.5 1481.67 Q1784.44 1486.25 1778.63 1486.25 Q1772.82 1486.25 1769.75 1481.67 Q1766.69 1477.06 1766.69 1468.33 Q1766.69 1459.58 1769.75 1455 Q1772.82 1450.39 1778.63 1450.39 Z" fill="#000000" fill-rule="nonzero" fill-opacity="1"></path><path clip-path="url(#clip630)" d="M2106.68 1481.64 L2114.32 1481.64 L2114.32 1455.28 L2106.01 1456.95 L2106.01 1452.69 L2114.28 1451.02 L2118.95 1451.02 L2118.95 1481.64 L2126.59 1481.64 L2126.59 1485.58 L2106.68 1485.58 L2106.68 1481.64 Z" fill="#000000" fill-rule="nonzero" fill-opacity="1"></path><path clip-path="url(#clip630)" d="M2136.08 1451.02 L2154.44 1451.02 L2154.44 1454.96 L2140.36 1454.96 L2140.36 1463.43 Q2141.38 1463.08 2142.4 1462.92 Q2143.42 1462.73 2144.44 1462.73 Q2150.22 1462.73 2153.6 1465.9 Q2156.98 1469.08 2156.98 1474.49 Q2156.98 1480.07 2153.51 1483.17 Q2150.04 1486.25 2143.72 1486.25 Q2141.54 1486.25 2139.27 1485.88 Q2137.03 1485.51 2134.62 1484.77 L2134.62 1480.07 Q2136.71 1481.2 2138.93 1481.76 Q2141.15 1482.32 2143.63 1482.32 Q2147.63 1482.32 2149.97 1480.21 Q2152.31 1478.1 2152.31 1474.49 Q2152.31 1470.88 2149.97 1468.77 Q2147.63 1466.67 2143.63 1466.67 Q2141.75 1466.67 2139.88 1467.08 Q2138.02 1467.5 2136.08 1468.38 L2136.08 1451.02 Z" fill="#000000" fill-rule="nonzero" fill-opacity="1"></path><path clip-path="url(#clip630)" d="M2176.2 1454.1 Q2172.58 1454.1 2170.76 1457.66 Q2168.95 1461.2 2168.95 1468.33 Q2168.95 1475.44 2170.76 1479.01 Q2172.58 1482.55 2176.2 1482.55 Q2179.83 1482.55 2181.64 1479.01 Q2183.46 1475.44 2183.46 1468.33 Q2183.46 1461.2 2181.64 1457.66 Q2179.83 1454.1 2176.2 1454.1 M2176.2 1450.39 Q2182.01 1450.39 2185.06 1455 Q2188.14 1459.58 2188.14 1468.33 Q2188.14 1477.06 2185.06 1481.67 Q2182.01 1486.25 2176.2 1486.25 Q2170.39 1486.25 2167.31 1481.67 Q2164.25 1477.06 2164.25 1468.33 Q2164.25 1459.58 2167.31 1455 Q2170.39 1450.39 2176.2 1450.39 Z" fill="#000000" fill-rule="nonzero" fill-opacity="1"></path><path clip-path="url(#clip630)" d="M1094.25 1522.08 L1094.25 1528.35 Q1090.59 1526.6 1087.35 1525.74 Q1084.1 1524.88 1081.08 1524.88 Q1075.82 1524.88 1072.96 1526.92 Q1070.13 1528.96 1070.13 1532.71 Q1070.13 1535.87 1072.01 1537.49 Q1073.91 1539.08 1079.2 1540.07 L1083.08 1540.86 Q1090.27 1542.23 1093.68 1545.7 Q1097.12 1549.14 1097.12 1554.93 Q1097.12 1561.84 1092.47 1565.4 Q1087.86 1568.97 1078.91 1568.97 Q1075.54 1568.97 1071.72 1568.2 Q1067.93 1567.44 1063.86 1565.94 L1063.86 1559.32 Q1067.77 1561.52 1071.53 1562.63 Q1075.28 1563.75 1078.91 1563.75 Q1084.42 1563.75 1087.41 1561.58 Q1090.4 1559.42 1090.4 1555.41 Q1090.4 1551.91 1088.24 1549.93 Q1086.11 1547.96 1081.2 1546.97 L1077.29 1546.21 Q1070.1 1544.78 1066.88 1541.72 Q1063.67 1538.67 1063.67 1533.22 Q1063.67 1526.92 1068.09 1523.29 Q1072.55 1519.66 1080.34 1519.66 Q1083.69 1519.66 1087.16 1520.27 Q1090.62 1520.87 1094.25 1522.08 Z" fill="#000000" fill-rule="nonzero" fill-opacity="1"></path><path clip-path="url(#clip630)" d="M1112.55 1562.7 L1112.55 1581.6 L1106.67 1581.6 L1106.67 1532.4 L1112.55 1532.4 L1112.55 1537.81 Q1114.4 1534.62 1117.2 1533.1 Q1120.03 1531.54 1123.95 1531.54 Q1130.44 1531.54 1134.48 1536.69 Q1138.56 1541.85 1138.56 1550.25 Q1138.56 1558.65 1134.48 1563.81 Q1130.44 1568.97 1123.95 1568.97 Q1120.03 1568.97 1117.2 1567.44 Q1114.4 1565.88 1112.55 1562.7 M1132.48 1550.25 Q1132.48 1543.79 1129.81 1540.13 Q1127.16 1536.44 1122.52 1536.44 Q1117.87 1536.44 1115.2 1540.13 Q1112.55 1543.79 1112.55 1550.25 Q1112.55 1556.71 1115.2 1560.4 Q1117.87 1564.07 1122.52 1564.07 Q1127.16 1564.07 1129.81 1560.4 Q1132.48 1556.71 1132.48 1550.25 Z" fill="#000000" fill-rule="nonzero" fill-opacity="1"></path><path clip-path="url(#clip630)" d="M1178.76 1548.76 L1178.76 1551.62 L1151.83 1551.62 Q1152.21 1557.67 1155.46 1560.85 Q1158.74 1564 1164.56 1564 Q1167.94 1564 1171.09 1563.17 Q1174.27 1562.35 1177.39 1560.69 L1177.39 1566.23 Q1174.24 1567.57 1170.93 1568.27 Q1167.62 1568.97 1164.21 1568.97 Q1155.68 1568.97 1150.69 1564 Q1145.72 1559.04 1145.72 1550.57 Q1145.72 1541.82 1150.43 1536.69 Q1155.17 1531.54 1163.19 1531.54 Q1170.39 1531.54 1174.56 1536.18 Q1178.76 1540.8 1178.76 1548.76 M1172.9 1547.04 Q1172.84 1542.23 1170.2 1539.37 Q1167.59 1536.5 1163.26 1536.5 Q1158.36 1536.5 1155.4 1539.27 Q1152.47 1542.04 1152.02 1547.07 L1172.9 1547.04 Z" fill="#000000" fill-rule="nonzero" fill-opacity="1"></path><path clip-path="url(#clip630)" d="M1218.86 1548.76 L1218.86 1551.62 L1191.94 1551.62 Q1192.32 1557.67 1195.56 1560.85 Q1198.84 1564 1204.67 1564 Q1208.04 1564 1211.19 1563.17 Q1214.37 1562.35 1217.49 1560.69 L1217.49 1566.23 Q1214.34 1567.57 1211.03 1568.27 Q1207.72 1568.97 1204.32 1568.97 Q1195.79 1568.97 1190.79 1564 Q1185.82 1559.04 1185.82 1550.57 Q1185.82 1541.82 1190.53 1536.69 Q1195.28 1531.54 1203.3 1531.54 Q1210.49 1531.54 1214.66 1536.18 Q1218.86 1540.8 1218.86 1548.76 M1213.01 1547.04 Q1212.94 1542.23 1210.3 1539.37 Q1207.69 1536.5 1203.36 1536.5 Q1198.46 1536.5 1195.5 1539.27 Q1192.57 1542.04 1192.13 1547.07 L1213.01 1547.04 Z" fill="#000000" fill-rule="nonzero" fill-opacity="1"></path><path clip-path="url(#clip630)" d="M1251.93 1537.81 L1251.93 1518.52 L1257.79 1518.52 L1257.79 1568.04 L1251.93 1568.04 L1251.93 1562.7 Q1250.09 1565.88 1247.25 1567.44 Q1244.45 1568.97 1240.51 1568.97 Q1234.04 1568.97 1229.97 1563.81 Q1225.93 1558.65 1225.93 1550.25 Q1225.93 1541.85 1229.97 1536.69 Q1234.04 1531.54 1240.51 1531.54 Q1244.45 1531.54 1247.25 1533.1 Q1250.09 1534.62 1251.93 1537.81 M1231.98 1550.25 Q1231.98 1556.71 1234.62 1560.4 Q1237.29 1564.07 1241.94 1564.07 Q1246.58 1564.07 1249.26 1560.4 Q1251.93 1556.71 1251.93 1550.25 Q1251.93 1543.79 1249.26 1540.13 Q1246.58 1536.44 1241.94 1536.44 Q1237.29 1536.44 1234.62 1540.13 Q1231.98 1543.79 1231.98 1550.25 Z" fill="#000000" fill-rule="nonzero" fill-opacity="1"></path><path clip-path="url(#clip630)" d="M1304.64 1518.58 Q1300.37 1525.9 1298.31 1533.06 Q1296.24 1540.23 1296.24 1547.58 Q1296.24 1554.93 1298.31 1562.16 Q1300.41 1569.35 1304.64 1576.64 L1299.55 1576.64 Q1294.77 1569.16 1292.39 1561.93 Q1290.03 1554.71 1290.03 1547.58 Q1290.03 1540.48 1292.39 1533.29 Q1294.74 1526.09 1299.55 1518.58 L1304.64 1518.58 Z" fill="#000000" fill-rule="nonzero" fill-opacity="1"></path><path clip-path="url(#clip630)" d="M1315.78 1518.52 L1321.67 1518.52 L1321.67 1547.77 L1339.14 1532.4 L1346.62 1532.4 L1327.72 1549.07 L1347.42 1568.04 L1339.78 1568.04 L1321.67 1550.63 L1321.67 1568.04 L1315.78 1568.04 L1315.78 1518.52 Z" fill="#000000" fill-rule="nonzero" fill-opacity="1"></path><path clip-path="url(#clip630)" d="M1381.51 1539.24 Q1383.7 1535.29 1386.76 1533.41 Q1389.81 1531.54 1393.95 1531.54 Q1399.52 1531.54 1402.54 1535.45 Q1405.57 1539.33 1405.57 1546.53 L1405.57 1568.04 L1399.68 1568.04 L1399.68 1546.72 Q1399.68 1541.59 1397.87 1539.11 Q1396.05 1536.63 1392.33 1536.63 Q1387.78 1536.63 1385.13 1539.65 Q1382.49 1542.68 1382.49 1547.9 L1382.49 1568.04 L1376.6 1568.04 L1376.6 1546.72 Q1376.6 1541.56 1374.79 1539.11 Q1372.98 1536.63 1369.19 1536.63 Q1364.7 1536.63 1362.06 1539.68 Q1359.42 1542.71 1359.42 1547.9 L1359.42 1568.04 L1353.53 1568.04 L1353.53 1532.4 L1359.42 1532.4 L1359.42 1537.93 Q1361.42 1534.66 1364.22 1533.1 Q1367.02 1531.54 1370.88 1531.54 Q1374.76 1531.54 1377.46 1533.51 Q1380.2 1535.48 1381.51 1539.24 Z" fill="#000000" fill-rule="nonzero" fill-opacity="1"></path><path clip-path="url(#clip630)" d="M1427.66 1520.52 L1433.07 1520.52 L1416.52 1574.09 L1411.11 1574.09 L1427.66 1520.52 Z" fill="#000000" fill-rule="nonzero" fill-opacity="1"></path><path clip-path="url(#clip630)" d="M1468.84 1546.53 L1468.84 1568.04 L1462.99 1568.04 L1462.99 1546.72 Q1462.99 1541.66 1461.01 1539.14 Q1459.04 1536.63 1455.09 1536.63 Q1450.35 1536.63 1447.61 1539.65 Q1444.88 1542.68 1444.88 1547.9 L1444.88 1568.04 L1438.99 1568.04 L1438.99 1518.52 L1444.88 1518.52 L1444.88 1537.93 Q1446.98 1534.72 1449.81 1533.13 Q1452.67 1531.54 1456.4 1531.54 Q1462.54 1531.54 1465.69 1535.36 Q1468.84 1539.14 1468.84 1546.53 Z" fill="#000000" fill-rule="nonzero" fill-opacity="1"></path><path clip-path="url(#clip630)" d="M1479.6 1518.58 L1484.69 1518.58 Q1489.47 1526.09 1491.82 1533.29 Q1494.21 1540.48 1494.21 1547.58 Q1494.21 1554.71 1491.82 1561.93 Q1489.47 1569.16 1484.69 1576.64 L1479.6 1576.64 Q1483.83 1569.35 1485.9 1562.16 Q1488 1554.93 1488 1547.58 Q1488 1540.23 1485.9 1533.06 Q1483.83 1525.9 1479.6 1518.58 Z" fill="#000000" fill-rule="nonzero" fill-opacity="1"></path><polyline clip-path="url(#clip630)" style="stroke:#000000; stroke-linecap:round; stroke-linejoin:round; stroke-width:4; stroke-opacity:1; fill:none" points="205.121,1423.18 205.121,123.472 "></polyline>
<polyline clip-path="url(#clip630)" style="stroke:#000000; stroke-linecap:round; stroke-linejoin:round; stroke-width:4; stroke-opacity:1; fill:none" points="205.121,1423.18 224.019,1423.18 "></polyline>
<polyline clip-path="url(#clip630)" style="stroke:#000000; stroke-linecap:round; stroke-linejoin:round; stroke-width:4; stroke-opacity:1; fill:none" points="205.121,1208.35 224.019,1208.35 "></polyline>
<polyline clip-path="url(#clip630)" style="stroke:#000000; stroke-linecap:round; stroke-linejoin:round; stroke-width:4; stroke-opacity:1; fill:none" points="205.121,993.524 224.019,993.524 "></polyline>
<polyline clip-path="url(#clip630)" style="stroke:#000000; stroke-linecap:round; stroke-linejoin:round; stroke-width:4; stroke-opacity:1; fill:none" points="205.121,778.697 224.019,778.697 "></polyline>
<polyline clip-path="url(#clip630)" style="stroke:#000000; stroke-linecap:round; stroke-linejoin:round; stroke-width:4; stroke-opacity:1; fill:none" points="205.121,563.869 224.019,563.869 "></polyline>
<polyline clip-path="url(#clip630)" style="stroke:#000000; stroke-linecap:round; stroke-linejoin:round; stroke-width:4; stroke-opacity:1; fill:none" points="205.121,349.041 224.019,349.041 "></polyline>
<polyline clip-path="url(#clip630)" style="stroke:#000000; stroke-linecap:round; stroke-linejoin:round; stroke-width:4; stroke-opacity:1; fill:none" points="205.121,134.214 224.019,134.214 "></polyline>
<path clip-path="url(#clip630)" d="M157.177 1408.98 Q153.566 1408.98 151.737 1412.54 Q149.931 1416.08 149.931 1423.21 Q149.931 1430.32 151.737 1433.89 Q153.566 1437.43 157.177 1437.43 Q160.811 1437.43 162.616 1433.89 Q164.445 1430.32 164.445 1423.21 Q164.445 1416.08 162.616 1412.54 Q160.811 1408.98 157.177 1408.98 M157.177 1405.27 Q162.987 1405.27 166.042 1409.88 Q169.121 1414.46 169.121 1423.21 Q169.121 1431.94 166.042 1436.55 Q162.987 1441.13 157.177 1441.13 Q151.366 1441.13 148.288 1436.55 Q145.232 1431.94 145.232 1423.21 Q145.232 1414.46 148.288 1409.88 Q151.366 1405.27 157.177 1405.27 Z" fill="#000000" fill-rule="nonzero" fill-opacity="1"></path><path clip-path="url(#clip630)" d="M117.825 1221.7 L125.464 1221.7 L125.464 1195.33 L117.154 1197 L117.154 1192.74 L125.418 1191.07 L130.093 1191.07 L130.093 1221.7 L137.732 1221.7 L137.732 1225.63 L117.825 1225.63 L117.825 1221.7 Z" fill="#000000" fill-rule="nonzero" fill-opacity="1"></path><path clip-path="url(#clip630)" d="M157.177 1194.15 Q153.566 1194.15 151.737 1197.72 Q149.931 1201.26 149.931 1208.39 Q149.931 1215.49 151.737 1219.06 Q153.566 1222.6 157.177 1222.6 Q160.811 1222.6 162.616 1219.06 Q164.445 1215.49 164.445 1208.39 Q164.445 1201.26 162.616 1197.72 Q160.811 1194.15 157.177 1194.15 M157.177 1190.45 Q162.987 1190.45 166.042 1195.05 Q169.121 1199.64 169.121 1208.39 Q169.121 1217.11 166.042 1221.72 Q162.987 1226.3 157.177 1226.3 Q151.366 1226.3 148.288 1221.72 Q145.232 1217.11 145.232 1208.39 Q145.232 1199.64 148.288 1195.05 Q151.366 1190.45 157.177 1190.45 Z" fill="#000000" fill-rule="nonzero" fill-opacity="1"></path><path clip-path="url(#clip630)" d="M121.043 1006.87 L137.362 1006.87 L137.362 1010.8 L115.418 1010.8 L115.418 1006.87 Q118.08 1004.11 122.663 999.485 Q127.269 994.832 128.45 993.49 Q130.695 990.967 131.575 989.23 Q132.478 987.471 132.478 985.781 Q132.478 983.027 130.533 981.291 Q128.612 979.555 125.51 979.555 Q123.311 979.555 120.857 980.318 Q118.427 981.082 115.649 982.633 L115.649 977.911 Q118.473 976.777 120.927 976.198 Q123.38 975.619 125.418 975.619 Q130.788 975.619 133.982 978.305 Q137.177 980.99 137.177 985.48 Q137.177 987.61 136.367 989.531 Q135.579 991.43 133.473 994.022 Q132.894 994.693 129.792 997.911 Q126.691 1001.11 121.043 1006.87 Z" fill="#000000" fill-rule="nonzero" fill-opacity="1"></path><path clip-path="url(#clip630)" d="M157.177 979.323 Q153.566 979.323 151.737 982.888 Q149.931 986.43 149.931 993.559 Q149.931 1000.67 151.737 1004.23 Q153.566 1007.77 157.177 1007.77 Q160.811 1007.77 162.616 1004.23 Q164.445 1000.67 164.445 993.559 Q164.445 986.43 162.616 982.888 Q160.811 979.323 157.177 979.323 M157.177 975.619 Q162.987 975.619 166.042 980.226 Q169.121 984.809 169.121 993.559 Q169.121 1002.29 166.042 1006.89 Q162.987 1011.48 157.177 1011.48 Q151.366 1011.48 148.288 1006.89 Q145.232 1002.29 145.232 993.559 Q145.232 984.809 148.288 980.226 Q151.366 975.619 157.177 975.619 Z" fill="#000000" fill-rule="nonzero" fill-opacity="1"></path><path clip-path="url(#clip630)" d="M131.181 777.343 Q134.538 778.06 136.413 780.329 Q138.311 782.597 138.311 785.93 Q138.311 791.046 134.792 793.847 Q131.274 796.648 124.793 796.648 Q122.617 796.648 120.302 796.208 Q118.01 795.791 115.556 794.935 L115.556 790.421 Q117.501 791.555 119.816 792.134 Q122.13 792.713 124.654 792.713 Q129.052 792.713 131.343 790.977 Q133.658 789.241 133.658 785.93 Q133.658 782.875 131.505 781.162 Q129.376 779.426 125.556 779.426 L121.529 779.426 L121.529 775.583 L125.742 775.583 Q129.191 775.583 131.019 774.218 Q132.848 772.829 132.848 770.236 Q132.848 767.574 130.95 766.162 Q129.075 764.727 125.556 764.727 Q123.635 764.727 121.436 765.144 Q119.237 765.56 116.598 766.44 L116.598 762.273 Q119.26 761.532 121.575 761.162 Q123.913 760.792 125.973 760.792 Q131.297 760.792 134.399 763.222 Q137.501 765.63 137.501 769.75 Q137.501 772.62 135.857 774.611 Q134.214 776.579 131.181 777.343 Z" fill="#000000" fill-rule="nonzero" fill-opacity="1"></path><path clip-path="url(#clip630)" d="M157.177 764.495 Q153.566 764.495 151.737 768.06 Q149.931 771.602 149.931 778.731 Q149.931 785.838 151.737 789.403 Q153.566 792.944 157.177 792.944 Q160.811 792.944 162.616 789.403 Q164.445 785.838 164.445 778.731 Q164.445 771.602 162.616 768.06 Q160.811 764.495 157.177 764.495 M157.177 760.792 Q162.987 760.792 166.042 765.398 Q169.121 769.981 169.121 778.731 Q169.121 787.458 166.042 792.065 Q162.987 796.648 157.177 796.648 Q151.366 796.648 148.288 792.065 Q145.232 787.458 145.232 778.731 Q145.232 769.981 148.288 765.398 Q151.366 760.792 157.177 760.792 Z" fill="#000000" fill-rule="nonzero" fill-opacity="1"></path><path clip-path="url(#clip630)" d="M129.862 550.663 L118.056 569.112 L129.862 569.112 L129.862 550.663 M128.635 546.589 L134.515 546.589 L134.515 569.112 L139.445 569.112 L139.445 573.001 L134.515 573.001 L134.515 581.149 L129.862 581.149 L129.862 573.001 L114.26 573.001 L114.26 568.487 L128.635 546.589 Z" fill="#000000" fill-rule="nonzero" fill-opacity="1"></path><path clip-path="url(#clip630)" d="M157.177 549.668 Q153.566 549.668 151.737 553.232 Q149.931 556.774 149.931 563.904 Q149.931 571.01 151.737 574.575 Q153.566 578.117 157.177 578.117 Q160.811 578.117 162.616 574.575 Q164.445 571.01 164.445 563.904 Q164.445 556.774 162.616 553.232 Q160.811 549.668 157.177 549.668 M157.177 545.964 Q162.987 545.964 166.042 550.57 Q169.121 555.154 169.121 563.904 Q169.121 572.63 166.042 577.237 Q162.987 581.82 157.177 581.82 Q151.366 581.82 148.288 577.237 Q145.232 572.63 145.232 563.904 Q145.232 555.154 148.288 550.57 Q151.366 545.964 157.177 545.964 Z" fill="#000000" fill-rule="nonzero" fill-opacity="1"></path><path clip-path="url(#clip630)" d="M117.061 331.761 L135.417 331.761 L135.417 335.696 L121.343 335.696 L121.343 344.169 Q122.362 343.821 123.38 343.659 Q124.399 343.474 125.418 343.474 Q131.205 343.474 134.584 346.645 Q137.964 349.817 137.964 355.233 Q137.964 360.812 134.492 363.914 Q131.019 366.993 124.7 366.993 Q122.524 366.993 120.255 366.622 Q118.01 366.252 115.603 365.511 L115.603 360.812 Q117.686 361.946 119.908 362.502 Q122.13 363.057 124.607 363.057 Q128.612 363.057 130.95 360.951 Q133.288 358.844 133.288 355.233 Q133.288 351.622 130.95 349.516 Q128.612 347.409 124.607 347.409 Q122.732 347.409 120.857 347.826 Q119.006 348.243 117.061 349.122 L117.061 331.761 Z" fill="#000000" fill-rule="nonzero" fill-opacity="1"></path><path clip-path="url(#clip630)" d="M157.177 334.84 Q153.566 334.84 151.737 338.405 Q149.931 341.946 149.931 349.076 Q149.931 356.182 151.737 359.747 Q153.566 363.289 157.177 363.289 Q160.811 363.289 162.616 359.747 Q164.445 356.182 164.445 349.076 Q164.445 341.946 162.616 338.405 Q160.811 334.84 157.177 334.84 M157.177 331.136 Q162.987 331.136 166.042 335.743 Q169.121 340.326 169.121 349.076 Q169.121 357.803 166.042 362.409 Q162.987 366.993 157.177 366.993 Q151.366 366.993 148.288 362.409 Q145.232 357.803 145.232 349.076 Q145.232 340.326 148.288 335.743 Q151.366 331.136 157.177 331.136 Z" fill="#000000" fill-rule="nonzero" fill-opacity="1"></path><path clip-path="url(#clip630)" d="M127.593 132.35 Q124.445 132.35 122.593 134.503 Q120.765 136.656 120.765 140.406 Q120.765 144.132 122.593 146.308 Q124.445 148.461 127.593 148.461 Q130.742 148.461 132.57 146.308 Q134.422 144.132 134.422 140.406 Q134.422 136.656 132.57 134.503 Q130.742 132.35 127.593 132.35 M136.876 117.697 L136.876 121.957 Q135.117 121.123 133.311 120.683 Q131.529 120.244 129.769 120.244 Q125.14 120.244 122.686 123.369 Q120.255 126.494 119.908 132.813 Q121.274 130.799 123.334 129.734 Q125.394 128.646 127.871 128.646 Q133.08 128.646 136.089 131.818 Q139.121 134.966 139.121 140.406 Q139.121 145.73 135.973 148.947 Q132.825 152.165 127.593 152.165 Q121.598 152.165 118.427 147.581 Q115.256 142.975 115.256 134.248 Q115.256 126.054 119.144 121.193 Q123.033 116.309 129.584 116.309 Q131.343 116.309 133.126 116.656 Q134.931 117.003 136.876 117.697 Z" fill="#000000" fill-rule="nonzero" fill-opacity="1"></path><path clip-path="url(#clip630)" d="M157.177 120.012 Q153.566 120.012 151.737 123.577 Q149.931 127.119 149.931 134.248 Q149.931 141.355 151.737 144.919 Q153.566 148.461 157.177 148.461 Q160.811 148.461 162.616 144.919 Q164.445 141.355 164.445 134.248 Q164.445 127.119 162.616 123.577 Q160.811 120.012 157.177 120.012 M157.177 116.309 Q162.987 116.309 166.042 120.915 Q169.121 125.498 169.121 134.248 Q169.121 142.975 166.042 147.581 Q162.987 152.165 157.177 152.165 Q151.366 152.165 148.288 147.581 Q145.232 142.975 145.232 134.248 Q145.232 125.498 148.288 120.915 Q151.366 116.309 157.177 116.309 Z" fill="#000000" fill-rule="nonzero" fill-opacity="1"></path><path clip-path="url(#clip630)" d="M16.4842 1049.71 L16.4842 1019.66 L21.895 1019.66 L21.895 1043.28 L35.9632 1043.28 L35.9632 1020.65 L41.3741 1020.65 L41.3741 1043.28 L58.5933 1043.28 L58.5933 1019.09 L64.0042 1019.09 L64.0042 1049.71 L16.4842 1049.71 Z" fill="#000000" fill-rule="nonzero" fill-opacity="1"></path><path clip-path="url(#clip630)" d="M35.1993 981.023 Q31.2526 978.827 29.3747 975.771 Q27.4968 972.716 27.4968 968.578 Q27.4968 963.008 31.4117 959.984 Q35.2948 956.961 42.4881 956.961 L64.0042 956.961 L64.0042 962.849 L42.679 962.849 Q37.5546 962.849 35.072 964.663 Q32.5894 966.477 32.5894 970.201 Q32.5894 974.753 35.6131 977.395 Q38.6368 980.036 43.8567 980.036 L64.0042 980.036 L64.0042 985.925 L42.679 985.925 Q37.5228 985.925 35.072 987.739 Q32.5894 989.553 32.5894 993.341 Q32.5894 997.829 35.6449 1000.47 Q38.6686 1003.11 43.8567 1003.11 L64.0042 1003.11 L64.0042 1009 L28.3562 1009 L28.3562 1003.11 L33.8944 1003.11 Q30.616 1001.11 29.0564 998.306 Q27.4968 995.505 27.4968 991.654 Q27.4968 987.771 29.4702 985.065 Q31.4436 982.328 35.1993 981.023 Z" fill="#000000" fill-rule="nonzero" fill-opacity="1"></path><path clip-path="url(#clip630)" d="M28.3562 945.28 L28.3562 939.423 L64.0042 939.423 L64.0042 945.28 L28.3562 945.28 M14.479 945.28 L14.479 939.423 L21.895 939.423 L21.895 945.28 L14.479 945.28 Z" fill="#000000" fill-rule="nonzero" fill-opacity="1"></path><path clip-path="url(#clip630)" d="M29.4065 904.444 L34.9447 904.444 Q33.6716 906.926 33.035 909.6 Q32.3984 912.273 32.3984 915.138 Q32.3984 919.499 33.7352 921.695 Q35.072 923.859 37.7456 923.859 Q39.7826 923.859 40.9603 922.299 Q42.1061 920.74 43.1565 916.029 L43.6021 914.024 Q44.9389 907.786 47.3897 905.176 Q49.8086 902.534 54.1691 902.534 Q59.1344 902.534 62.0308 906.481 Q64.9272 910.396 64.9272 917.271 Q64.9272 920.135 64.3543 923.254 Q63.8132 926.342 62.6992 929.779 L56.6518 929.779 Q58.3387 926.533 59.198 923.382 Q60.0256 920.231 60.0256 917.143 Q60.0256 913.006 58.6251 910.778 Q57.1929 908.55 54.6147 908.55 Q52.2276 908.55 50.9545 910.173 Q49.6813 911.764 48.5037 917.207 L48.0262 919.244 Q46.8804 924.687 44.5251 927.106 Q42.138 929.525 38.0002 929.525 Q32.9713 929.525 30.2341 925.96 Q27.4968 922.395 27.4968 915.838 Q27.4968 912.592 27.9743 909.727 Q28.4517 906.863 29.4065 904.444 Z" fill="#000000" fill-rule="nonzero" fill-opacity="1"></path><path clip-path="url(#clip630)" d="M29.4065 870.483 L34.9447 870.483 Q33.6716 872.965 33.035 875.639 Q32.3984 878.312 32.3984 881.177 Q32.3984 885.537 33.7352 887.734 Q35.072 889.898 37.7456 889.898 Q39.7826 889.898 40.9603 888.338 Q42.1061 886.779 43.1565 882.068 L43.6021 880.063 Q44.9389 873.825 47.3897 871.215 Q49.8086 868.573 54.1691 868.573 Q59.1344 868.573 62.0308 872.52 Q64.9272 876.435 64.9272 883.309 Q64.9272 886.174 64.3543 889.293 Q63.8132 892.381 62.6992 895.818 L56.6518 895.818 Q58.3387 892.572 59.198 889.421 Q60.0256 886.27 60.0256 883.182 Q60.0256 879.044 58.6251 876.816 Q57.1929 874.588 54.6147 874.588 Q52.2276 874.588 50.9545 876.212 Q49.6813 877.803 48.5037 883.246 L48.0262 885.283 Q46.8804 890.726 44.5251 893.144 Q42.138 895.563 38.0002 895.563 Q32.9713 895.563 30.2341 891.999 Q27.4968 888.434 27.4968 881.877 Q27.4968 878.631 27.9743 875.766 Q28.4517 872.902 29.4065 870.483 Z" fill="#000000" fill-rule="nonzero" fill-opacity="1"></path><path clip-path="url(#clip630)" d="M28.3562 859.247 L28.3562 853.391 L64.0042 853.391 L64.0042 859.247 L28.3562 859.247 M14.479 859.247 L14.479 853.391 L21.895 853.391 L21.895 859.247 L14.479 859.247 Z" fill="#000000" fill-rule="nonzero" fill-opacity="1"></path><path clip-path="url(#clip630)" d="M32.4621 827.323 Q32.4621 832.034 36.1542 834.771 Q39.8145 837.508 46.212 837.508 Q52.6095 837.508 56.3017 834.803 Q59.9619 832.066 59.9619 827.323 Q59.9619 822.644 56.2698 819.907 Q52.5777 817.17 46.212 817.17 Q39.8781 817.17 36.186 819.907 Q32.4621 822.644 32.4621 827.323 M27.4968 827.323 Q27.4968 819.684 32.4621 815.324 Q37.4273 810.963 46.212 810.963 Q54.9649 810.963 59.9619 815.324 Q64.9272 819.684 64.9272 827.323 Q64.9272 834.994 59.9619 839.354 Q54.9649 843.683 46.212 843.683 Q37.4273 843.683 32.4621 839.354 Q27.4968 834.994 27.4968 827.323 Z" fill="#000000" fill-rule="nonzero" fill-opacity="1"></path><path clip-path="url(#clip630)" d="M42.4881 771.623 L64.0042 771.623 L64.0042 777.48 L42.679 777.48 Q37.6183 777.48 35.1038 779.453 Q32.5894 781.426 32.5894 785.373 Q32.5894 790.116 35.6131 792.853 Q38.6368 795.59 43.8567 795.59 L64.0042 795.59 L64.0042 801.478 L28.3562 801.478 L28.3562 795.59 L33.8944 795.59 Q30.6797 793.489 29.0883 790.657 Q27.4968 787.792 27.4968 784.068 Q27.4968 777.925 31.3163 774.774 Q35.1038 771.623 42.4881 771.623 Z" fill="#000000" fill-rule="nonzero" fill-opacity="1"></path><path clip-path="url(#clip630)" d="M29.4065 737.217 L34.9447 737.217 Q33.6716 739.699 33.035 742.373 Q32.3984 745.046 32.3984 747.911 Q32.3984 752.271 33.7352 754.468 Q35.072 756.632 37.7456 756.632 Q39.7826 756.632 40.9603 755.072 Q42.1061 753.513 43.1565 748.802 L43.6021 746.797 Q44.9389 740.559 47.3897 737.949 Q49.8086 735.307 54.1691 735.307 Q59.1344 735.307 62.0308 739.254 Q64.9272 743.168 64.9272 750.043 Q64.9272 752.908 64.3543 756.027 Q63.8132 759.115 62.6992 762.552 L56.6518 762.552 Q58.3387 759.306 59.198 756.154 Q60.0256 753.003 60.0256 749.916 Q60.0256 745.778 58.6251 743.55 Q57.1929 741.322 54.6147 741.322 Q52.2276 741.322 50.9545 742.946 Q49.6813 744.537 48.5037 749.98 L48.0262 752.017 Q46.8804 757.459 44.5251 759.878 Q42.138 762.297 38.0002 762.297 Q32.9713 762.297 30.2341 758.733 Q27.4968 755.168 27.4968 748.611 Q27.4968 745.365 27.9743 742.5 Q28.4517 739.635 29.4065 737.217 Z" fill="#000000" fill-rule="nonzero" fill-opacity="1"></path><path clip-path="url(#clip630)" d="M14.5426 691.192 Q21.8632 695.457 29.0246 697.526 Q36.186 699.595 43.5384 699.595 Q50.8908 699.595 58.1159 697.526 Q65.3091 695.426 72.5979 691.192 L72.5979 696.285 Q65.1182 701.059 57.8931 703.446 Q50.668 705.802 43.5384 705.802 Q36.4406 705.802 29.2474 703.446 Q22.0542 701.091 14.5426 696.285 L14.5426 691.192 Z" fill="#000000" fill-rule="nonzero" fill-opacity="1"></path><path clip-path="url(#clip630)" d="M14.479 680.052 L14.479 674.164 L43.7294 674.164 L28.3562 656.69 L28.3562 649.211 L45.0344 668.117 L64.0042 648.415 L64.0042 656.054 L46.5939 674.164 L64.0042 674.164 L64.0042 680.052 L14.479 680.052 Z" fill="#000000" fill-rule="nonzero" fill-opacity="1"></path><path clip-path="url(#clip630)" d="M45.7664 618.623 Q39.4007 618.623 35.8996 621.265 Q32.3984 623.875 32.3984 628.618 Q32.3984 633.328 35.8996 635.97 Q39.4007 638.58 45.7664 638.58 Q52.1003 638.58 55.6014 635.97 Q59.1026 633.328 59.1026 628.618 Q59.1026 623.875 55.6014 621.265 Q52.1003 618.623 45.7664 618.623 M59.58 612.767 Q68.683 612.767 73.1071 616.809 Q77.5631 620.851 77.5631 629.19 Q77.5631 632.278 77.0857 635.015 Q76.6401 637.752 75.6852 640.33 L69.9879 640.33 Q71.3884 637.752 72.0568 635.238 Q72.7252 632.723 72.7252 630.113 Q72.7252 624.353 69.7015 621.488 Q66.7096 618.623 60.6303 618.623 L57.7339 618.623 Q60.885 620.438 62.4446 623.27 Q64.0042 626.103 64.0042 630.05 Q64.0042 636.607 59.0071 640.617 Q54.01 644.627 45.7664 644.627 Q37.491 644.627 32.4939 640.617 Q27.4968 636.607 27.4968 630.05 Q27.4968 626.103 29.0564 623.27 Q30.616 620.438 33.7671 618.623 L28.3562 618.623 L28.3562 612.767 L59.58 612.767 Z" fill="#000000" fill-rule="nonzero" fill-opacity="1"></path><path clip-path="url(#clip630)" d="M16.4842 590.296 L16.4842 584.885 L70.0516 601.436 L70.0516 606.847 L16.4842 590.296 Z" fill="#000000" fill-rule="nonzero" fill-opacity="1"></path><path clip-path="url(#clip630)" d="M42.4881 549.11 L64.0042 549.11 L64.0042 554.966 L42.679 554.966 Q37.6183 554.966 35.1038 556.94 Q32.5894 558.913 32.5894 562.86 Q32.5894 567.602 35.6131 570.34 Q38.6368 573.077 43.8567 573.077 L64.0042 573.077 L64.0042 578.965 L14.479 578.965 L14.479 573.077 L33.8944 573.077 Q30.6797 570.976 29.0883 568.143 Q27.4968 565.279 27.4968 561.555 Q27.4968 555.412 31.3163 552.261 Q35.1038 549.11 42.4881 549.11 Z" fill="#000000" fill-rule="nonzero" fill-opacity="1"></path><path clip-path="url(#clip630)" d="M33.8307 516.772 Q33.2578 517.759 33.0032 518.936 Q32.7167 520.082 32.7167 521.483 Q32.7167 526.448 35.9632 529.122 Q39.1779 531.763 45.2253 531.763 L64.0042 531.763 L64.0042 537.652 L28.3562 537.652 L28.3562 531.763 L33.8944 531.763 Q30.6479 529.917 29.0883 526.957 Q27.4968 523.997 27.4968 519.764 Q27.4968 519.159 27.5923 518.427 Q27.656 517.695 27.8151 516.804 L33.8307 516.772 Z" fill="#000000" fill-rule="nonzero" fill-opacity="1"></path><path clip-path="url(#clip630)" d="M14.5426 511.552 L14.5426 506.46 Q22.0542 501.685 29.2474 499.33 Q36.4406 496.943 43.5384 496.943 Q50.668 496.943 57.8931 499.33 Q65.1182 501.685 72.5979 506.46 L72.5979 511.552 Q65.3091 507.319 58.1159 505.25 Q50.8908 503.149 43.5384 503.149 Q36.186 503.149 29.0246 505.25 Q21.8632 507.319 14.5426 511.552 Z" fill="#000000" fill-rule="nonzero" fill-opacity="1"></path><path clip-path="url(#clip630)" d="M345.914 12.096 L384.154 12.096 L384.154 18.9825 L354.097 18.9825 L354.097 36.8875 L382.899 36.8875 L382.899 43.7741 L354.097 43.7741 L354.097 65.6895 L384.884 65.6895 L384.884 72.576 L345.914 72.576 L345.914 12.096 Z" fill="#000000" fill-rule="nonzero" fill-opacity="1"></path><path clip-path="url(#clip630)" d="M433.332 35.9153 Q436.128 30.8922 440.016 28.5022 Q443.905 26.1121 449.171 26.1121 Q456.261 26.1121 460.109 31.0947 Q463.957 36.0368 463.957 45.1919 L463.957 72.576 L456.463 72.576 L456.463 45.4349 Q456.463 38.913 454.154 35.7533 Q451.845 32.5936 447.106 32.5936 Q441.313 32.5936 437.95 36.4419 Q434.588 40.2903 434.588 46.9338 L434.588 72.576 L427.094 72.576 L427.094 45.4349 Q427.094 38.8725 424.785 35.7533 Q422.476 32.5936 417.655 32.5936 Q411.944 32.5936 408.581 36.4824 Q405.219 40.3308 405.219 46.9338 L405.219 72.576 L397.725 72.576 L397.725 27.2059 L405.219 27.2059 L405.219 34.2544 Q407.771 30.082 411.336 28.0971 Q414.901 26.1121 419.802 26.1121 Q424.745 26.1121 428.188 28.6237 Q431.672 31.1352 433.332 35.9153 Z" fill="#000000" fill-rule="nonzero" fill-opacity="1"></path><path clip-path="url(#clip630)" d="M478.824 27.2059 L486.278 27.2059 L486.278 72.576 L478.824 72.576 L478.824 27.2059 M478.824 9.54393 L486.278 9.54393 L486.278 18.9825 L478.824 18.9825 L478.824 9.54393 Z" fill="#000000" fill-rule="nonzero" fill-opacity="1"></path><path clip-path="url(#clip630)" d="M530.797 28.5427 L530.797 35.5912 Q527.637 33.9709 524.235 33.1607 Q520.832 32.3505 517.186 32.3505 Q511.636 32.3505 508.841 34.0519 Q506.087 35.7533 506.087 39.156 Q506.087 41.7486 508.072 43.2475 Q510.057 44.7058 516.052 46.0426 L518.604 46.6097 Q526.544 48.3111 529.865 51.4303 Q533.228 54.509 533.228 60.0587 Q533.228 66.3781 528.205 70.0644 Q523.222 73.7508 514.472 73.7508 Q510.826 73.7508 506.856 73.0216 Q502.927 72.3329 498.552 70.9151 L498.552 63.2184 Q502.684 65.3654 506.694 66.4591 Q510.705 67.5124 514.634 67.5124 Q519.9 67.5124 522.736 65.73 Q525.572 63.9071 525.572 60.6258 Q525.572 57.5877 523.506 55.9673 Q521.48 54.3469 514.553 52.8481 L511.96 52.2405 Q505.033 50.7821 501.955 47.7845 Q498.876 44.7463 498.876 39.4801 Q498.876 33.0797 503.413 29.5959 Q507.95 26.1121 516.295 26.1121 Q520.427 26.1121 524.073 26.7198 Q527.719 27.3274 530.797 28.5427 Z" fill="#000000" fill-rule="nonzero" fill-opacity="1"></path><path clip-path="url(#clip630)" d="M574.02 28.5427 L574.02 35.5912 Q570.861 33.9709 567.458 33.1607 Q564.055 32.3505 560.409 32.3505 Q554.86 32.3505 552.064 34.0519 Q549.31 35.7533 549.31 39.156 Q549.31 41.7486 551.295 43.2475 Q553.28 44.7058 559.275 46.0426 L561.827 46.6097 Q569.767 48.3111 573.089 51.4303 Q576.451 54.509 576.451 60.0587 Q576.451 66.3781 571.428 70.0644 Q566.445 73.7508 557.695 73.7508 Q554.049 73.7508 550.079 73.0216 Q546.15 72.3329 541.775 70.9151 L541.775 63.2184 Q545.907 65.3654 549.917 66.4591 Q553.928 67.5124 557.857 67.5124 Q563.123 67.5124 565.959 65.73 Q568.795 63.9071 568.795 60.6258 Q568.795 57.5877 566.729 55.9673 Q564.703 54.3469 557.776 52.8481 L555.184 52.2405 Q548.257 50.7821 545.178 47.7845 Q542.099 44.7463 542.099 39.4801 Q542.099 33.0797 546.636 29.5959 Q551.173 26.1121 559.518 26.1121 Q563.65 26.1121 567.296 26.7198 Q570.942 27.3274 574.02 28.5427 Z" fill="#000000" fill-rule="nonzero" fill-opacity="1"></path><path clip-path="url(#clip630)" d="M588.32 27.2059 L595.774 27.2059 L595.774 72.576 L588.32 72.576 L588.32 27.2059 M588.32 9.54393 L595.774 9.54393 L595.774 18.9825 L588.32 18.9825 L588.32 9.54393 Z" fill="#000000" fill-rule="nonzero" fill-opacity="1"></path><path clip-path="url(#clip630)" d="M628.951 32.4315 Q622.955 32.4315 619.471 37.1306 Q615.988 41.7891 615.988 49.9314 Q615.988 58.0738 619.431 62.7728 Q622.915 67.4314 628.951 67.4314 Q634.905 67.4314 638.389 62.7323 Q641.873 58.0333 641.873 49.9314 Q641.873 41.8701 638.389 37.1711 Q634.905 32.4315 628.951 32.4315 M628.951 26.1121 Q638.673 26.1121 644.223 32.4315 Q649.772 38.7509 649.772 49.9314 Q649.772 61.0714 644.223 67.4314 Q638.673 73.7508 628.951 73.7508 Q619.188 73.7508 613.638 67.4314 Q608.129 61.0714 608.129 49.9314 Q608.129 38.7509 613.638 32.4315 Q619.188 26.1121 628.951 26.1121 Z" fill="#000000" fill-rule="nonzero" fill-opacity="1"></path><path clip-path="url(#clip630)" d="M699.841 45.1919 L699.841 72.576 L692.388 72.576 L692.388 45.4349 Q692.388 38.994 689.876 35.7938 Q687.365 32.5936 682.342 32.5936 Q676.306 32.5936 672.822 36.4419 Q669.338 40.2903 669.338 46.9338 L669.338 72.576 L661.844 72.576 L661.844 27.2059 L669.338 27.2059 L669.338 34.2544 Q672.012 30.163 675.617 28.1376 Q679.263 26.1121 684.002 26.1121 Q691.821 26.1121 695.831 30.9732 Q699.841 35.7938 699.841 45.1919 Z" fill="#000000" fill-rule="nonzero" fill-opacity="1"></path><path clip-path="url(#clip630)" d="M743.632 28.5427 L743.632 35.5912 Q740.472 33.9709 737.069 33.1607 Q733.666 32.3505 730.021 32.3505 Q724.471 32.3505 721.676 34.0519 Q718.921 35.7533 718.921 39.156 Q718.921 41.7486 720.906 43.2475 Q722.891 44.7058 728.886 46.0426 L731.438 46.6097 Q739.378 48.3111 742.7 51.4303 Q746.062 54.509 746.062 60.0587 Q746.062 66.3781 741.039 70.0644 Q736.057 73.7508 727.307 73.7508 Q723.661 73.7508 719.691 73.0216 Q715.761 72.3329 711.387 70.9151 L711.387 63.2184 Q715.518 65.3654 719.529 66.4591 Q723.539 67.5124 727.469 67.5124 Q732.735 67.5124 735.57 65.73 Q738.406 63.9071 738.406 60.6258 Q738.406 57.5877 736.34 55.9673 Q734.315 54.3469 727.388 52.8481 L724.795 52.2405 Q717.868 50.7821 714.789 47.7845 Q711.711 44.7463 711.711 39.4801 Q711.711 33.0797 716.248 29.5959 Q720.785 26.1121 729.129 26.1121 Q733.261 26.1121 736.907 26.7198 Q740.553 27.3274 743.632 28.5427 Z" fill="#000000" fill-rule="nonzero" fill-opacity="1"></path><path clip-path="url(#clip630)" d="M778.956 27.2059 L786.855 27.2059 L801.033 65.2844 L815.211 27.2059 L823.11 27.2059 L806.097 72.576 L795.969 72.576 L778.956 27.2059 Z" fill="#000000" fill-rule="nonzero" fill-opacity="1"></path><path clip-path="url(#clip630)" d="M862.323 28.5427 L862.323 35.5912 Q859.163 33.9709 855.761 33.1607 Q852.358 32.3505 848.712 32.3505 Q843.162 32.3505 840.367 34.0519 Q837.613 35.7533 837.613 39.156 Q837.613 41.7486 839.598 43.2475 Q841.583 44.7058 847.578 46.0426 L850.13 46.6097 Q858.07 48.3111 861.391 51.4303 Q864.754 54.509 864.754 60.0587 Q864.754 66.3781 859.731 70.0644 Q854.748 73.7508 845.998 73.7508 Q842.352 73.7508 838.382 73.0216 Q834.453 72.3329 830.078 70.9151 L830.078 63.2184 Q834.21 65.3654 838.22 66.4591 Q842.231 67.5124 846.16 67.5124 Q851.426 67.5124 854.262 65.73 Q857.098 63.9071 857.098 60.6258 Q857.098 57.5877 855.032 55.9673 Q853.006 54.3469 846.079 52.8481 L843.486 52.2405 Q836.559 50.7821 833.481 47.7845 Q830.402 44.7463 830.402 39.4801 Q830.402 33.0797 834.939 29.5959 Q839.476 26.1121 847.821 26.1121 Q851.953 26.1121 855.599 26.7198 Q859.245 27.3274 862.323 28.5427 Z" fill="#000000" fill-rule="nonzero" fill-opacity="1"></path><path clip-path="url(#clip630)" d="M931.918 28.5427 L931.918 35.5912 Q928.758 33.9709 925.355 33.1607 Q921.953 32.3505 918.307 32.3505 Q912.757 32.3505 909.962 34.0519 Q907.207 35.7533 907.207 39.156 Q907.207 41.7486 909.192 43.2475 Q911.177 44.7058 917.172 46.0426 L919.725 46.6097 Q927.664 48.3111 930.986 51.4303 Q934.348 54.509 934.348 60.0587 Q934.348 66.3781 929.325 70.0644 Q924.343 73.7508 915.593 73.7508 Q911.947 73.7508 907.977 73.0216 Q904.048 72.3329 899.673 70.9151 L899.673 63.2184 Q903.804 65.3654 907.815 66.4591 Q911.825 67.5124 915.755 67.5124 Q921.021 67.5124 923.856 65.73 Q926.692 63.9071 926.692 60.6258 Q926.692 57.5877 924.626 55.9673 Q922.601 54.3469 915.674 52.8481 L913.081 52.2405 Q906.154 50.7821 903.075 47.7845 Q899.997 44.7463 899.997 39.4801 Q899.997 33.0797 904.534 29.5959 Q909.071 26.1121 917.415 26.1121 Q921.547 26.1121 925.193 26.7198 Q928.839 27.3274 931.918 28.5427 Z" fill="#000000" fill-rule="nonzero" fill-opacity="1"></path><path clip-path="url(#clip630)" d="M953.428 65.7705 L953.428 89.8329 L945.934 89.8329 L945.934 27.2059 L953.428 27.2059 L953.428 34.0924 Q955.778 30.0415 959.342 28.0971 Q962.948 26.1121 967.93 26.1121 Q976.194 26.1121 981.339 32.6746 Q986.524 39.2371 986.524 49.9314 Q986.524 60.6258 981.339 67.1883 Q976.194 73.7508 967.93 73.7508 Q962.948 73.7508 959.342 71.8063 Q955.778 69.8214 953.428 65.7705 M978.787 49.9314 Q978.787 41.7081 975.384 37.0496 Q972.022 32.3505 966.107 32.3505 Q960.193 32.3505 956.79 37.0496 Q953.428 41.7081 953.428 49.9314 Q953.428 58.1548 956.79 62.8538 Q960.193 67.5124 966.107 67.5124 Q972.022 67.5124 975.384 62.8538 Q978.787 58.1548 978.787 49.9314 Z" fill="#000000" fill-rule="nonzero" fill-opacity="1"></path><path clip-path="url(#clip630)" d="M1037.69 48.0275 L1037.69 51.6733 L1003.42 51.6733 Q1003.9 59.3701 1008.03 63.421 Q1012.21 67.4314 1019.62 67.4314 Q1023.91 67.4314 1027.92 66.3781 Q1031.98 65.3249 1035.94 63.2184 L1035.94 70.267 Q1031.93 71.9684 1027.72 72.8596 Q1023.51 73.7508 1019.17 73.7508 Q1008.32 73.7508 1001.96 67.4314 Q995.638 61.1119 995.638 50.3365 Q995.638 39.1965 1001.63 32.6746 Q1007.67 26.1121 1017.88 26.1121 Q1027.03 26.1121 1032.34 32.0264 Q1037.69 37.9003 1037.69 48.0275 M1030.23 45.84 Q1030.15 39.7232 1026.79 36.0774 Q1023.47 32.4315 1017.96 32.4315 Q1011.72 32.4315 1007.95 35.9558 Q1004.23 39.4801 1003.66 45.8805 L1030.23 45.84 Z" fill="#000000" fill-rule="nonzero" fill-opacity="1"></path><path clip-path="url(#clip630)" d="M1088.73 48.0275 L1088.73 51.6733 L1054.46 51.6733 Q1054.94 59.3701 1059.08 63.421 Q1063.25 67.4314 1070.66 67.4314 Q1074.96 67.4314 1078.97 66.3781 Q1083.02 65.3249 1086.99 63.2184 L1086.99 70.267 Q1082.98 71.9684 1078.76 72.8596 Q1074.55 73.7508 1070.22 73.7508 Q1059.36 73.7508 1053 67.4314 Q1046.68 61.1119 1046.68 50.3365 Q1046.68 39.1965 1052.68 32.6746 Q1058.71 26.1121 1068.92 26.1121 Q1078.07 26.1121 1083.38 32.0264 Q1088.73 37.9003 1088.73 48.0275 M1081.27 45.84 Q1081.19 39.7232 1077.83 36.0774 Q1074.51 32.4315 1069 32.4315 Q1062.76 32.4315 1058.99 35.9558 Q1055.27 39.4801 1054.7 45.8805 L1081.27 45.84 Z" fill="#000000" fill-rule="nonzero" fill-opacity="1"></path><path clip-path="url(#clip630)" d="M1130.82 34.0924 L1130.82 9.54393 L1138.27 9.54393 L1138.27 72.576 L1130.82 72.576 L1130.82 65.7705 Q1128.47 69.8214 1124.86 71.8063 Q1121.3 73.7508 1116.27 73.7508 Q1108.05 73.7508 1102.87 67.1883 Q1097.72 60.6258 1097.72 49.9314 Q1097.72 39.2371 1102.87 32.6746 Q1108.05 26.1121 1116.27 26.1121 Q1121.3 26.1121 1124.86 28.0971 Q1128.47 30.0415 1130.82 34.0924 M1105.42 49.9314 Q1105.42 58.1548 1108.78 62.8538 Q1112.18 67.5124 1118.1 67.5124 Q1124.01 67.5124 1127.41 62.8538 Q1130.82 58.1548 1130.82 49.9314 Q1130.82 41.7081 1127.41 37.0496 Q1124.01 32.3505 1118.1 32.3505 Q1112.18 32.3505 1108.78 37.0496 Q1105.42 41.7081 1105.42 49.9314 Z" fill="#000000" fill-rule="nonzero" fill-opacity="1"></path><path clip-path="url(#clip630)" d="M1176.23 46.9338 L1251.09 46.9338 L1251.09 52.7671 L1176.23 52.7671 L1176.23 46.9338 Z" fill="#000000" fill-rule="nonzero" fill-opacity="1"></path><path clip-path="url(#clip630)" d="M1296.54 65.7705 L1296.54 89.8329 L1289.05 89.8329 L1289.05 27.2059 L1296.54 27.2059 L1296.54 34.0924 Q1298.89 30.0415 1302.45 28.0971 Q1306.06 26.1121 1311.04 26.1121 Q1319.31 26.1121 1324.45 32.6746 Q1329.64 39.2371 1329.64 49.9314 Q1329.64 60.6258 1324.45 67.1883 Q1319.31 73.7508 1311.04 73.7508 Q1306.06 73.7508 1302.45 71.8063 Q1298.89 69.8214 1296.54 65.7705 M1321.9 49.9314 Q1321.9 41.7081 1318.5 37.0496 Q1315.13 32.3505 1309.22 32.3505 Q1303.3 32.3505 1299.9 37.0496 Q1296.54 41.7081 1296.54 49.9314 Q1296.54 58.1548 1299.9 62.8538 Q1303.3 67.5124 1309.22 67.5124 Q1315.13 67.5124 1318.5 62.8538 Q1321.9 58.1548 1321.9 49.9314 Z" fill="#000000" fill-rule="nonzero" fill-opacity="1"></path><path clip-path="url(#clip630)" d="M1359.57 32.4315 Q1353.58 32.4315 1350.09 37.1306 Q1346.61 41.7891 1346.61 49.9314 Q1346.61 58.0738 1350.05 62.7728 Q1353.54 67.4314 1359.57 67.4314 Q1365.53 67.4314 1369.01 62.7323 Q1372.49 58.0333 1372.49 49.9314 Q1372.49 41.8701 1369.01 37.1711 Q1365.53 32.4315 1359.57 32.4315 M1359.57 26.1121 Q1369.29 26.1121 1374.84 32.4315 Q1380.39 38.7509 1380.39 49.9314 Q1380.39 61.0714 1374.84 67.4314 Q1369.29 73.7508 1359.57 73.7508 Q1349.81 73.7508 1344.26 67.4314 Q1338.75 61.0714 1338.75 49.9314 Q1338.75 38.7509 1344.26 32.4315 Q1349.81 26.1121 1359.57 26.1121 Z" fill="#000000" fill-rule="nonzero" fill-opacity="1"></path><path clip-path="url(#clip630)" d="M1392.75 9.54393 L1400.2 9.54393 L1400.2 72.576 L1392.75 72.576 L1392.75 9.54393 Z" fill="#000000" fill-rule="nonzero" fill-opacity="1"></path><path clip-path="url(#clip630)" d="M1434.68 76.7889 Q1431.52 84.8907 1428.52 87.3618 Q1425.52 89.8329 1420.5 89.8329 L1414.54 89.8329 L1414.54 83.5945 L1418.92 83.5945 Q1422 83.5945 1423.7 82.1361 Q1425.4 80.6778 1427.46 75.2496 L1428.8 71.8468 L1410.45 27.2059 L1418.35 27.2059 L1432.53 62.6918 L1446.71 27.2059 L1454.61 27.2059 L1434.68 76.7889 Z" fill="#000000" fill-rule="nonzero" fill-opacity="1"></path><path clip-path="url(#clip630)" d="M1502.61 45.1919 L1502.61 72.576 L1495.16 72.576 L1495.16 45.4349 Q1495.16 38.994 1492.64 35.7938 Q1490.13 32.5936 1485.11 32.5936 Q1479.07 32.5936 1475.59 36.4419 Q1472.11 40.2903 1472.11 46.9338 L1472.11 72.576 L1464.61 72.576 L1464.61 27.2059 L1472.11 27.2059 L1472.11 34.2544 Q1474.78 30.163 1478.38 28.1376 Q1482.03 26.1121 1486.77 26.1121 Q1494.59 26.1121 1498.6 30.9732 Q1502.61 35.7938 1502.61 45.1919 Z" fill="#000000" fill-rule="nonzero" fill-opacity="1"></path><path clip-path="url(#clip630)" d="M1535.06 32.4315 Q1529.06 32.4315 1525.58 37.1306 Q1522.09 41.7891 1522.09 49.9314 Q1522.09 58.0738 1525.54 62.7728 Q1529.02 67.4314 1535.06 67.4314 Q1541.01 67.4314 1544.5 62.7323 Q1547.98 58.0333 1547.98 49.9314 Q1547.98 41.8701 1544.5 37.1711 Q1541.01 32.4315 1535.06 32.4315 M1535.06 26.1121 Q1544.78 26.1121 1550.33 32.4315 Q1555.88 38.7509 1555.88 49.9314 Q1555.88 61.0714 1550.33 67.4314 Q1544.78 73.7508 1535.06 73.7508 Q1525.29 73.7508 1519.74 67.4314 Q1514.24 61.0714 1514.24 49.9314 Q1514.24 38.7509 1519.74 32.4315 Q1525.29 26.1121 1535.06 26.1121 Z" fill="#000000" fill-rule="nonzero" fill-opacity="1"></path><path clip-path="url(#clip630)" d="M1603.56 35.9153 Q1606.35 30.8922 1610.24 28.5022 Q1614.13 26.1121 1619.4 26.1121 Q1626.49 26.1121 1630.33 31.0947 Q1634.18 36.0368 1634.18 45.1919 L1634.18 72.576 L1626.69 72.576 L1626.69 45.4349 Q1626.69 38.913 1624.38 35.7533 Q1622.07 32.5936 1617.33 32.5936 Q1611.54 32.5936 1608.18 36.4419 Q1604.81 40.2903 1604.81 46.9338 L1604.81 72.576 L1597.32 72.576 L1597.32 45.4349 Q1597.32 38.8725 1595.01 35.7533 Q1592.7 32.5936 1587.88 32.5936 Q1582.17 32.5936 1578.81 36.4824 Q1575.44 40.3308 1575.44 46.9338 L1575.44 72.576 L1567.95 72.576 L1567.95 27.2059 L1575.44 27.2059 L1575.44 34.2544 Q1578 30.082 1581.56 28.0971 Q1585.13 26.1121 1590.03 26.1121 Q1594.97 26.1121 1598.41 28.6237 Q1601.9 31.1352 1603.56 35.9153 Z" fill="#000000" fill-rule="nonzero" fill-opacity="1"></path><path clip-path="url(#clip630)" d="M1649.05 27.2059 L1656.5 27.2059 L1656.5 72.576 L1649.05 72.576 L1649.05 27.2059 M1649.05 9.54393 L1656.5 9.54393 L1656.5 18.9825 L1649.05 18.9825 L1649.05 9.54393 Z" fill="#000000" fill-rule="nonzero" fill-opacity="1"></path><path clip-path="url(#clip630)" d="M1692.72 49.7694 Q1683.68 49.7694 1680.2 51.8354 Q1676.72 53.9013 1676.72 58.8839 Q1676.72 62.8538 1679.31 65.2034 Q1681.94 67.5124 1686.44 67.5124 Q1692.64 67.5124 1696.36 63.1374 Q1700.13 58.7219 1700.13 51.4303 L1700.13 49.7694 L1692.72 49.7694 M1707.58 46.6907 L1707.58 72.576 L1700.13 72.576 L1700.13 65.6895 Q1697.58 69.8214 1693.77 71.8063 Q1689.96 73.7508 1684.45 73.7508 Q1677.49 73.7508 1673.35 69.8619 Q1669.26 65.9325 1669.26 59.3701 Q1669.26 51.7138 1674.37 47.825 Q1679.51 43.9361 1689.68 43.9361 L1700.13 43.9361 L1700.13 43.2069 Q1700.13 38.0623 1696.73 35.2672 Q1693.37 32.4315 1687.25 32.4315 Q1683.36 32.4315 1679.67 33.3632 Q1675.99 34.295 1672.59 36.1584 L1672.59 29.2718 Q1676.68 27.692 1680.52 26.9223 Q1684.37 26.1121 1688.02 26.1121 Q1697.86 26.1121 1702.72 31.2163 Q1707.58 36.3204 1707.58 46.6907 Z" fill="#000000" fill-rule="nonzero" fill-opacity="1"></path><path clip-path="url(#clip630)" d="M1722.94 9.54393 L1730.39 9.54393 L1730.39 72.576 L1722.94 72.576 L1722.94 9.54393 Z" fill="#000000" fill-rule="nonzero" fill-opacity="1"></path><path clip-path="url(#clip630)" d="M1795.33 9.54393 L1795.33 15.7418 L1788.2 15.7418 Q1784.19 15.7418 1782.61 17.3622 Q1781.07 18.9825 1781.07 23.1955 L1781.07 27.2059 L1793.34 27.2059 L1793.34 32.9987 L1781.07 32.9987 L1781.07 72.576 L1773.57 72.576 L1773.57 32.9987 L1766.44 32.9987 L1766.44 27.2059 L1773.57 27.2059 L1773.57 24.0462 Q1773.57 16.471 1777.1 13.0277 Q1780.62 9.54393 1788.28 9.54393 L1795.33 9.54393 Z" fill="#000000" fill-rule="nonzero" fill-opacity="1"></path><path clip-path="url(#clip630)" d="M1801.57 27.2059 L1809.02 27.2059 L1809.02 72.576 L1801.57 72.576 L1801.57 27.2059 M1801.57 9.54393 L1809.02 9.54393 L1809.02 18.9825 L1801.57 18.9825 L1801.57 9.54393 Z" fill="#000000" fill-rule="nonzero" fill-opacity="1"></path><path clip-path="url(#clip630)" d="M1831.99 14.324 L1831.99 27.2059 L1847.34 27.2059 L1847.34 32.9987 L1831.99 32.9987 L1831.99 57.6282 Q1831.99 63.1779 1833.49 64.7578 Q1835.03 66.3376 1839.68 66.3376 L1847.34 66.3376 L1847.34 72.576 L1839.68 72.576 Q1831.06 72.576 1827.78 69.3758 Q1824.49 66.1351 1824.49 57.6282 L1824.49 32.9987 L1819.03 32.9987 L1819.03 27.2059 L1824.49 27.2059 L1824.49 14.324 L1831.99 14.324 Z" fill="#000000" fill-rule="nonzero" fill-opacity="1"></path><path clip-path="url(#clip630)" d="M1901.42 9.62495 Q1895.99 18.942 1893.36 28.0566 Q1890.73 37.1711 1890.73 46.5287 Q1890.73 55.8863 1893.36 65.0818 Q1896.03 74.2369 1901.42 83.5134 L1894.94 83.5134 Q1888.86 73.9938 1885.82 64.7983 Q1882.83 55.6027 1882.83 46.5287 Q1882.83 37.4952 1885.82 28.3401 Q1888.82 19.1851 1894.94 9.62495 L1901.42 9.62495 Z" fill="#000000" fill-rule="nonzero" fill-opacity="1"></path><path clip-path="url(#clip630)" d="M1945.74 34.0924 L1945.74 9.54393 L1953.19 9.54393 L1953.19 72.576 L1945.74 72.576 L1945.74 65.7705 Q1943.39 69.8214 1939.78 71.8063 Q1936.22 73.7508 1931.19 73.7508 Q1922.97 73.7508 1917.79 67.1883 Q1912.64 60.6258 1912.64 49.9314 Q1912.64 39.2371 1917.79 32.6746 Q1922.97 26.1121 1931.19 26.1121 Q1936.22 26.1121 1939.78 28.0971 Q1943.39 30.0415 1945.74 34.0924 M1920.34 49.9314 Q1920.34 58.1548 1923.7 62.8538 Q1927.1 67.5124 1933.02 67.5124 Q1938.93 67.5124 1942.33 62.8538 Q1945.74 58.1548 1945.74 49.9314 Q1945.74 41.7081 1942.33 37.0496 Q1938.93 32.3505 1933.02 32.3505 Q1927.1 32.3505 1923.7 37.0496 Q1920.34 41.7081 1920.34 49.9314 Z" fill="#000000" fill-rule="nonzero" fill-opacity="1"></path><path clip-path="url(#clip630)" d="M2007.35 48.0275 L2007.35 51.6733 L1973.08 51.6733 Q1973.57 59.3701 1977.7 63.421 Q1981.87 67.4314 1989.28 67.4314 Q1993.58 67.4314 1997.59 66.3781 Q2001.64 65.3249 2005.61 63.2184 L2005.61 70.267 Q2001.6 71.9684 1997.39 72.8596 Q1993.17 73.7508 1988.84 73.7508 Q1977.98 73.7508 1971.62 67.4314 Q1965.3 61.1119 1965.3 50.3365 Q1965.3 39.1965 1971.3 32.6746 Q1977.33 26.1121 1987.54 26.1121 Q1996.7 26.1121 2002 32.0264 Q2007.35 37.9003 2007.35 48.0275 M1999.9 45.84 Q1999.82 39.7232 1996.45 36.0774 Q1993.13 32.4315 1987.62 32.4315 Q1981.39 32.4315 1977.62 35.9558 Q1973.89 39.4801 1973.32 45.8805 L1999.9 45.84 Z" fill="#000000" fill-rule="nonzero" fill-opacity="1"></path><path clip-path="url(#clip630)" d="M2049.44 49.3643 Q2049.44 41.2625 2046.08 36.8065 Q2042.76 32.3505 2036.72 32.3505 Q2030.73 32.3505 2027.36 36.8065 Q2024.04 41.2625 2024.04 49.3643 Q2024.04 57.4256 2027.36 61.8816 Q2030.73 66.3376 2036.72 66.3376 Q2042.76 66.3376 2046.08 61.8816 Q2049.44 57.4256 2049.44 49.3643 M2056.89 66.9452 Q2056.89 78.5308 2051.75 84.1616 Q2046.61 89.8329 2035.99 89.8329 Q2032.06 89.8329 2028.58 89.2252 Q2025.09 88.6581 2021.81 87.4428 L2021.81 80.1917 Q2025.09 81.9741 2028.29 82.8248 Q2031.5 83.6755 2034.82 83.6755 Q2042.15 83.6755 2045.79 79.8271 Q2049.44 76.0193 2049.44 68.282 L2049.44 64.5957 Q2047.13 68.6061 2043.53 70.5911 Q2039.92 72.576 2034.9 72.576 Q2026.55 72.576 2021.45 66.2161 Q2016.34 59.8562 2016.34 49.3643 Q2016.34 38.832 2021.45 32.472 Q2026.55 26.1121 2034.9 26.1121 Q2039.92 26.1121 2043.53 28.0971 Q2047.13 30.082 2049.44 34.0924 L2049.44 27.2059 L2056.89 27.2059 L2056.89 66.9452 Z" fill="#000000" fill-rule="nonzero" fill-opacity="1"></path><path clip-path="url(#clip630)" d="M2073.22 34.9026 L2125.15 34.9026 L2125.15 41.7081 L2073.22 41.7081 L2073.22 34.9026 M2073.22 51.4303 L2125.15 51.4303 L2125.15 58.3168 L2073.22 58.3168 L2073.22 51.4303 Z" fill="#000000" fill-rule="nonzero" fill-opacity="1"></path><path clip-path="url(#clip630)" d="M2142.9 12.096 L2175.02 12.096 L2175.02 18.9825 L2150.39 18.9825 L2150.39 33.8088 Q2152.17 33.2012 2153.95 32.9176 Q2155.74 32.5936 2157.52 32.5936 Q2167.65 32.5936 2173.56 38.1433 Q2179.47 43.6931 2179.47 53.1722 Q2179.47 62.9348 2173.4 68.3631 Q2167.32 73.7508 2156.26 73.7508 Q2152.46 73.7508 2148.49 73.1026 Q2144.56 72.4545 2140.34 71.1582 L2140.34 62.9348 Q2143.99 64.9198 2147.88 65.892 Q2151.77 66.8642 2156.1 66.8642 Q2163.11 66.8642 2167.2 63.1779 Q2171.29 59.4916 2171.29 53.1722 Q2171.29 46.8528 2167.2 43.1664 Q2163.11 39.4801 2156.1 39.4801 Q2152.82 39.4801 2149.54 40.2093 Q2146.3 40.9384 2142.9 42.4778 L2142.9 12.096 Z" fill="#000000" fill-rule="nonzero" fill-opacity="1"></path><path clip-path="url(#clip630)" d="M2193.37 9.62495 L2199.85 9.62495 Q2205.93 19.1851 2208.92 28.3401 Q2211.96 37.4952 2211.96 46.5287 Q2211.96 55.6027 2208.92 64.7983 Q2205.93 73.9938 2199.85 83.5134 L2193.37 83.5134 Q2198.76 74.2369 2201.39 65.0818 Q2204.06 55.8863 2204.06 46.5287 Q2204.06 37.1711 2201.39 28.0566 Q2198.76 18.942 2193.37 9.62495 Z" fill="#000000" fill-rule="nonzero" fill-opacity="1"></path><circle clip-path="url(#clip632)" cx="265.903" cy="1294.28" r="14.4" fill="#009af9" fill-rule="evenodd" fill-opacity="1" stroke="#000000" stroke-opacity="1" stroke-width="3.2"></circle>
<circle clip-path="url(#clip632)" cx="372.538" cy="1219.09" r="14.4" fill="#009af9" fill-rule="evenodd" fill-opacity="1" stroke="#000000" stroke-opacity="1" stroke-width="3.2"></circle>
<circle clip-path="url(#clip632)" cx="479.174" cy="1197.61" r="14.4" fill="#009af9" fill-rule="evenodd" fill-opacity="1" stroke="#000000" stroke-opacity="1" stroke-width="3.2"></circle>
<circle clip-path="url(#clip632)" cx="585.809" cy="1208.35" r="14.4" fill="#009af9" fill-rule="evenodd" fill-opacity="1" stroke="#000000" stroke-opacity="1" stroke-width="3.2"></circle>
<circle clip-path="url(#clip632)" cx="692.444" cy="1194.93" r="14.4" fill="#009af9" fill-rule="evenodd" fill-opacity="1" stroke="#000000" stroke-opacity="1" stroke-width="3.2"></circle>
<circle clip-path="url(#clip632)" cx="799.08" cy="1197.61" r="14.4" fill="#009af9" fill-rule="evenodd" fill-opacity="1" stroke="#000000" stroke-opacity="1" stroke-width="3.2"></circle>
<circle clip-path="url(#clip632)" cx="905.715" cy="1178.81" r="14.4" fill="#009af9" fill-rule="evenodd" fill-opacity="1" stroke="#000000" stroke-opacity="1" stroke-width="3.2"></circle>
<circle clip-path="url(#clip632)" cx="1012.35" cy="1156.79" r="14.4" fill="#009af9" fill-rule="evenodd" fill-opacity="1" stroke="#000000" stroke-opacity="1" stroke-width="3.2"></circle>
<circle clip-path="url(#clip632)" cx="1118.99" cy="1124.46" r="14.4" fill="#009af9" fill-rule="evenodd" fill-opacity="1" stroke="#000000" stroke-opacity="1" stroke-width="3.2"></circle>
<circle clip-path="url(#clip632)" cx="1225.62" cy="1092.35" r="14.4" fill="#009af9" fill-rule="evenodd" fill-opacity="1" stroke="#000000" stroke-opacity="1" stroke-width="3.2"></circle>
<circle clip-path="url(#clip632)" cx="1332.26" cy="1059.26" r="14.4" fill="#009af9" fill-rule="evenodd" fill-opacity="1" stroke="#000000" stroke-opacity="1" stroke-width="3.2"></circle>
<circle clip-path="url(#clip632)" cx="1438.89" cy="1026.18" r="14.4" fill="#009af9" fill-rule="evenodd" fill-opacity="1" stroke="#000000" stroke-opacity="1" stroke-width="3.2"></circle>
<circle clip-path="url(#clip632)" cx="1545.53" cy="991.698" r="14.4" fill="#009af9" fill-rule="evenodd" fill-opacity="1" stroke="#000000" stroke-opacity="1" stroke-width="3.2"></circle>
<circle clip-path="url(#clip632)" cx="1652.16" cy="941.966" r="14.4" fill="#009af9" fill-rule="evenodd" fill-opacity="1" stroke="#000000" stroke-opacity="1" stroke-width="3.2"></circle>
<circle clip-path="url(#clip632)" cx="1758.8" cy="891.481" r="14.4" fill="#009af9" fill-rule="evenodd" fill-opacity="1" stroke="#000000" stroke-opacity="1" stroke-width="3.2"></circle>
<circle clip-path="url(#clip632)" cx="1865.43" cy="821.662" r="14.4" fill="#009af9" fill-rule="evenodd" fill-opacity="1" stroke="#000000" stroke-opacity="1" stroke-width="3.2"></circle>
<circle clip-path="url(#clip632)" cx="1972.07" cy="738.416" r="14.4" fill="#009af9" fill-rule="evenodd" fill-opacity="1" stroke="#000000" stroke-opacity="1" stroke-width="3.2"></circle>
<circle clip-path="url(#clip632)" cx="2078.7" cy="649.8" r="14.4" fill="#009af9" fill-rule="evenodd" fill-opacity="1" stroke="#000000" stroke-opacity="1" stroke-width="3.2"></circle>
<circle clip-path="url(#clip632)" cx="2185.34" cy="504.791" r="14.4" fill="#009af9" fill-rule="evenodd" fill-opacity="1" stroke="#000000" stroke-opacity="1" stroke-width="3.2"></circle>
<circle clip-path="url(#clip632)" cx="2291.97" cy="241.627" r="14.4" fill="#009af9" fill-rule="evenodd" fill-opacity="1" stroke="#000000" stroke-opacity="1" stroke-width="3.2"></circle>
<polyline clip-path="url(#clip632)" style="stroke:#e26f46; stroke-linecap:round; stroke-linejoin:round; stroke-width:8; stroke-opacity:1; fill:none" points="265.903,1288.19 270.981,1284.32 276.059,1280.58 281.137,1276.95 286.215,1273.44 291.292,1270.04 296.37,1266.76 301.448,1263.59 306.526,1260.52 311.604,1257.56 316.682,1254.7 321.76,1251.94 326.838,1249.28 331.915,1246.72 336.993,1244.25 342.071,1241.86 347.149,1239.57 352.227,1237.37 357.305,1235.24 362.383,1233.2 367.461,1231.25 372.538,1229.36 377.616,1227.56 382.694,1225.82 387.772,1224.16 392.85,1222.57 397.928,1221.05 403.006,1219.59 408.083,1218.2 413.161,1216.86 418.239,1215.59 423.317,1214.38 428.395,1213.22 433.473,1212.12 438.551,1211.07 443.629,1210.07 448.706,1209.12 453.784,1208.22 458.862,1207.36 463.94,1206.55 469.018,1205.79 474.096,1205.06 479.174,1204.37 484.252,1203.73 489.329,1203.11 494.407,1202.54 499.485,1202 504.563,1201.49 509.641,1201.01 514.719,1200.56 519.797,1200.14 524.875,1199.75 529.952,1199.38 535.03,1199.04 540.108,1198.72 545.186,1198.42 550.264,1198.14 555.342,1197.88 560.42,1197.64 565.498,1197.42 570.575,1197.21 575.653,1197.02 580.731,1196.84 585.809,1196.68 590.887,1196.53 595.965,1196.38 601.043,1196.25 606.12,1196.13 611.198,1196.01 616.276,1195.9 621.354,1195.8 626.432,1195.7 631.51,1195.6 636.588,1195.51 641.666,1195.42 646.743,1195.34 651.821,1195.25 656.899,1195.16 661.977,1195.08 667.055,1194.99 672.133,1194.9 677.211,1194.8 682.289,1194.71 687.366,1194.6 692.444,1194.5 697.522,1194.38 702.6,1194.27 707.678,1194.14 712.756,1194.01 717.834,1193.87 722.912,1193.72 727.989,1193.56 733.067,1193.39 738.145,1193.21 743.223,1193.02 748.301,1192.82 753.379,1192.61 758.457,1192.38 763.534,1192.15 768.612,1191.9 773.69,1191.64 778.768,1191.36 783.846,1191.07 788.924,1190.76 794.002,1190.45 799.08,1190.11 804.157,1189.76 809.235,1189.4 814.313,1189.01 819.391,1188.62 824.469,1188.2 829.547,1187.77 834.625,1187.32 839.703,1186.86 844.78,1186.38 849.858,1185.88 854.936,1185.36 860.014,1184.82 865.092,1184.27 870.17,1183.7 875.248,1183.1 880.326,1182.5 885.403,1181.87 890.481,1181.22 895.559,1180.56 900.637,1179.87 905.715,1179.17 910.793,1178.45 915.871,1177.7 920.949,1176.94 926.026,1176.16 931.104,1175.36 936.182,1174.55 941.26,1173.71 946.338,1172.85 951.416,1171.97 956.494,1171.08 961.571,1170.16 966.649,1169.23 971.727,1168.28 976.805,1167.31 981.883,1166.32 986.961,1165.31 992.039,1164.28 997.117,1163.23 1002.19,1162.17 1007.27,1161.08 1012.35,1159.98 1017.43,1158.86 1022.51,1157.72 1027.58,1156.56 1032.66,1155.39 1037.74,1154.19 1042.82,1152.98 1047.9,1151.75 1052.97,1150.51 1058.05,1149.25 1063.13,1147.97 1068.21,1146.67 1073.28,1145.36 1078.36,1144.03 1083.44,1142.68 1088.52,1141.32 1093.6,1139.94 1098.67,1138.55 1103.75,1137.14 1108.83,1135.71 1113.91,1134.27 1118.99,1132.82 1124.06,1131.35 1129.14,1129.87 1134.22,1128.37 1139.3,1126.86 1144.37,1125.33 1149.45,1123.79 1154.53,1122.24 1159.61,1120.67 1164.69,1119.09 1169.76,1117.5 1174.84,1115.9 1179.92,1114.28 1185,1112.65 1190.08,1111.01 1195.15,1109.36 1200.23,1107.7 1205.31,1106.03 1210.39,1104.34 1215.47,1102.65 1220.54,1100.94 1225.62,1099.23 1230.7,1097.5 1235.78,1095.77 1240.85,1094.02 1245.93,1092.27 1251.01,1090.51 1256.09,1088.74 1261.17,1086.96 1266.24,1085.18 1271.32,1083.38 1276.4,1081.58 1281.48,1079.77 1286.56,1077.95 1291.63,1076.13 1296.71,1074.3 1301.79,1072.46 1306.87,1070.62 1311.94,1068.77 1317.02,1066.91 1322.1,1065.05 1327.18,1063.18 1332.26,1061.31 1337.33,1059.43 1342.41,1057.55 1347.49,1055.66 1352.57,1053.77 1357.65,1051.87 1362.72,1049.97 1367.8,1048.06 1372.88,1046.15 1377.96,1044.24 1383.03,1042.32 1388.11,1040.4 1393.19,1038.48 1398.27,1036.55 1403.35,1034.62 1408.42,1032.69 1413.5,1030.75 1418.58,1028.81 1423.66,1026.87 1428.74,1024.93 1433.81,1022.98 1438.89,1021.03 1443.97,1019.08 1449.05,1017.12 1454.13,1015.16 1459.2,1013.2 1464.28,1011.24 1469.36,1009.28 1474.44,1007.31 1479.51,1005.34 1484.59,1003.37 1489.67,1001.4 1494.75,999.419 1499.83,997.441 1504.9,995.46 1509.98,993.476 1515.06,991.491 1520.14,989.502 1525.22,987.511 1530.29,985.517 1535.37,983.52 1540.45,981.52 1545.53,979.517 1550.6,977.511 1555.68,975.501 1560.76,973.487 1565.84,971.47 1570.92,969.449 1575.99,967.424 1581.07,965.394 1586.15,963.36 1591.23,961.32 1596.31,959.276 1601.38,957.227 1606.46,955.171 1611.54,953.11 1616.62,951.043 1621.69,948.969 1626.77,946.888 1631.85,944.8 1636.93,942.705 1642.01,940.601 1647.08,938.49 1652.16,936.369 1657.24,934.239 1662.32,932.1 1667.4,929.951 1672.47,927.791 1677.55,925.62 1682.63,923.438 1687.71,921.244 1692.78,919.037 1697.86,916.817 1702.94,914.584 1708.02,912.336 1713.1,910.074 1718.17,907.796 1723.25,905.502 1728.33,903.192 1733.41,900.864 1738.49,898.518 1743.56,896.154 1748.64,893.77 1753.72,891.366 1758.8,888.941 1763.88,886.494 1768.95,884.025 1774.03,881.533 1779.11,879.017 1784.19,876.475 1789.26,873.908 1794.34,871.314 1799.42,868.693 1804.5,866.043 1809.58,863.363 1814.65,860.653 1819.73,857.912 1824.81,855.138 1829.89,852.331 1834.97,849.489 1840.04,846.612 1845.12,843.698 1850.2,840.746 1855.28,837.756 1860.35,834.725 1865.43,831.653 1870.51,828.539 1875.59,825.381 1880.67,822.178 1885.74,818.929 1890.82,815.632 1895.9,812.287 1900.98,808.891 1906.06,805.444 1911.13,801.944 1916.21,798.39 1921.29,794.78 1926.37,791.114 1931.44,787.388 1936.52,783.602 1941.6,779.755 1946.68,775.845 1951.76,771.869 1956.83,767.828 1961.91,763.718 1966.99,759.539 1972.07,755.288 1977.15,750.964 1982.22,746.566 1987.3,742.091 1992.38,737.537 1997.46,732.904 2002.54,728.188 2007.61,723.389 2012.69,718.504 2017.77,713.532 2022.85,708.469 2027.92,703.316 2033,698.069 2038.08,692.726 2043.16,687.285 2048.24,681.745 2053.31,676.103 2058.39,670.358 2063.47,664.506 2068.55,658.545 2073.63,652.475 2078.7,646.291 2083.78,639.992 2088.86,633.576 2093.94,627.041 2099.01,620.383 2104.09,613.6 2109.17,606.691 2114.25,599.653 2119.33,592.482 2124.4,585.177 2129.48,577.735 2134.56,570.153 2139.64,562.43 2144.72,554.561 2149.79,546.545 2154.87,538.379 2159.95,530.06 2165.03,521.585 2170.1,512.951 2175.18,504.156 2180.26,495.197 2185.34,486.071 2190.42,476.774 2195.49,467.305 2200.57,457.659 2205.65,447.835 2210.73,437.828 2215.81,427.635 2220.88,417.255 2225.96,406.682 2231.04,395.915 2236.12,384.95 2241.2,373.784 2246.27,362.412 2251.35,350.833 2256.43,339.042 2261.51,327.037 2266.58,314.813 2271.66,302.368 2276.74,289.697 2281.82,276.798 2286.9,263.666 2291.97,250.298 "></polyline>
<path clip-path="url(#clip630)" d="M276.709 322.316 L809.781 322.316 L809.781 166.796 L276.709 166.796  Z" fill="#ffffff" fill-rule="evenodd" fill-opacity="1"></path>
<polyline clip-path="url(#clip630)" style="stroke:#000000; stroke-linecap:round; stroke-linejoin:round; stroke-width:4; stroke-opacity:1; fill:none" points="276.709,322.316 809.781,322.316 809.781,166.796 276.709,166.796 276.709,322.316 "></polyline>
<circle clip-path="url(#clip630)" cx="372.159" cy="218.636" r="20.48" fill="#009af9" fill-rule="evenodd" fill-opacity="1" stroke="#000000" stroke-opacity="1" stroke-width="4.55111"></circle>
<path clip-path="url(#clip630)" d="M481.452 238.323 Q479.647 242.953 477.934 244.365 Q476.221 245.777 473.35 245.777 L469.948 245.777 L469.948 242.212 L472.448 242.212 Q474.207 242.212 475.179 241.379 Q476.151 240.545 477.332 237.443 L478.096 235.499 L467.61 209.99 L472.124 209.99 L480.225 230.268 L488.327 209.99 L492.841 209.99 L481.452 238.323 Z" fill="#000000" fill-rule="nonzero" fill-opacity="1"></path><path clip-path="url(#clip630)" d="M500.133 231.981 L507.772 231.981 L507.772 205.615 L499.461 207.282 L499.461 203.022 L507.725 201.356 L512.401 201.356 L512.401 231.981 L520.04 231.981 L520.04 235.916 L500.133 235.916 L500.133 231.981 Z" fill="#000000" fill-rule="nonzero" fill-opacity="1"></path><polyline clip-path="url(#clip630)" style="stroke:#e26f46; stroke-linecap:round; stroke-linejoin:round; stroke-width:8; stroke-opacity:1; fill:none" points="300.571,270.476 443.747,270.476 "></polyline>
<path clip-path="url(#clip630)" d="M471.892 283.867 L471.892 297.617 L467.61 297.617 L467.61 261.83 L471.892 261.83 L471.892 265.765 Q473.235 263.45 475.272 262.339 Q477.332 261.205 480.179 261.205 Q484.901 261.205 487.841 264.955 Q490.804 268.705 490.804 274.816 Q490.804 280.927 487.841 284.677 Q484.901 288.427 480.179 288.427 Q477.332 288.427 475.272 287.316 Q473.235 286.182 471.892 283.867 M486.383 274.816 Q486.383 270.117 484.438 267.455 Q482.517 264.77 479.137 264.77 Q475.758 264.77 473.813 267.455 Q471.892 270.117 471.892 274.816 Q471.892 279.515 473.813 282.2 Q475.758 284.862 479.137 284.862 Q482.517 284.862 484.438 282.2 Q486.383 279.515 486.383 274.816 Z" fill="#000000" fill-rule="nonzero" fill-opacity="1"></path><path clip-path="url(#clip630)" d="M507.91 264.816 Q504.484 264.816 502.494 267.501 Q500.503 270.163 500.503 274.816 Q500.503 279.469 502.471 282.154 Q504.461 284.816 507.91 284.816 Q511.313 284.816 513.304 282.131 Q515.295 279.446 515.295 274.816 Q515.295 270.21 513.304 267.524 Q511.313 264.816 507.91 264.816 M507.91 261.205 Q513.466 261.205 516.637 264.816 Q519.808 268.427 519.808 274.816 Q519.808 281.182 516.637 284.816 Q513.466 288.427 507.91 288.427 Q502.332 288.427 499.16 284.816 Q496.012 281.182 496.012 274.816 Q496.012 268.427 499.16 264.816 Q502.332 261.205 507.91 261.205 Z" fill="#000000" fill-rule="nonzero" fill-opacity="1"></path><path clip-path="url(#clip630)" d="M526.869 251.737 L531.128 251.737 L531.128 287.756 L526.869 287.756 L526.869 251.737 Z" fill="#000000" fill-rule="nonzero" fill-opacity="1"></path><path clip-path="url(#clip630)" d="M550.827 290.163 Q549.021 294.793 547.308 296.205 Q545.595 297.617 542.725 297.617 L539.322 297.617 L539.322 294.052 L541.822 294.052 Q543.582 294.052 544.554 293.219 Q545.526 292.385 546.706 289.283 L547.47 287.339 L536.984 261.83 L541.498 261.83 L549.6 282.108 L557.702 261.83 L562.216 261.83 L550.827 290.163 Z" fill="#000000" fill-rule="nonzero" fill-opacity="1"></path><path clip-path="url(#clip630)" d="M600.225 265.765 L600.225 251.737 L604.484 251.737 L604.484 287.756 L600.225 287.756 L600.225 283.867 Q598.882 286.182 596.822 287.316 Q594.785 288.427 591.915 288.427 Q587.216 288.427 584.253 284.677 Q581.313 280.927 581.313 274.816 Q581.313 268.705 584.253 264.955 Q587.216 261.205 591.915 261.205 Q594.785 261.205 596.822 262.339 Q598.882 263.45 600.225 265.765 M585.711 274.816 Q585.711 279.515 587.632 282.2 Q589.577 284.862 592.956 284.862 Q596.336 284.862 598.28 282.2 Q600.225 279.515 600.225 274.816 Q600.225 270.117 598.28 267.455 Q596.336 264.77 592.956 264.77 Q589.577 264.77 587.632 267.455 Q585.711 270.117 585.711 274.816 Z" fill="#000000" fill-rule="nonzero" fill-opacity="1"></path><path clip-path="url(#clip630)" d="M635.433 273.728 L635.433 275.811 L615.85 275.811 Q616.127 280.209 618.489 282.524 Q620.873 284.816 625.109 284.816 Q627.563 284.816 629.854 284.214 Q632.169 283.612 634.437 282.409 L634.437 286.436 Q632.146 287.408 629.738 287.918 Q627.331 288.427 624.854 288.427 Q618.651 288.427 615.016 284.816 Q611.405 281.205 611.405 275.047 Q611.405 268.682 614.831 264.955 Q618.28 261.205 624.113 261.205 Q629.345 261.205 632.377 264.585 Q635.433 267.941 635.433 273.728 M631.174 272.478 Q631.127 268.983 629.206 266.899 Q627.308 264.816 624.16 264.816 Q620.595 264.816 618.442 266.83 Q616.313 268.844 615.989 272.501 L631.174 272.478 Z" fill="#000000" fill-rule="nonzero" fill-opacity="1"></path><path clip-path="url(#clip630)" d="M659.484 274.492 Q659.484 269.862 657.562 267.316 Q655.664 264.77 652.215 264.77 Q648.789 264.77 646.868 267.316 Q644.97 269.862 644.97 274.492 Q644.97 279.098 646.868 281.645 Q648.789 284.191 652.215 284.191 Q655.664 284.191 657.562 281.645 Q659.484 279.098 659.484 274.492 M663.743 284.538 Q663.743 291.158 660.803 294.376 Q657.863 297.617 651.799 297.617 Q649.553 297.617 647.562 297.27 Q645.572 296.945 643.697 296.251 L643.697 292.108 Q645.572 293.126 647.4 293.612 Q649.229 294.098 651.127 294.098 Q655.317 294.098 657.4 291.899 Q659.484 289.723 659.484 285.302 L659.484 283.196 Q658.164 285.487 656.104 286.621 Q654.044 287.756 651.174 287.756 Q646.405 287.756 643.488 284.121 Q640.572 280.487 640.572 274.492 Q640.572 268.473 643.488 264.839 Q646.405 261.205 651.174 261.205 Q654.044 261.205 656.104 262.339 Q658.164 263.473 659.484 265.765 L659.484 261.83 L663.743 261.83 L663.743 284.538 Z" fill="#000000" fill-rule="nonzero" fill-opacity="1"></path><path clip-path="url(#clip630)" d="M687.539 265.811 Q686.821 265.395 685.965 265.21 Q685.132 265.001 684.113 265.001 Q680.502 265.001 678.558 267.362 Q676.636 269.7 676.636 274.098 L676.636 287.756 L672.354 287.756 L672.354 261.83 L676.636 261.83 L676.636 265.858 Q677.979 263.497 680.132 262.362 Q682.284 261.205 685.363 261.205 Q685.803 261.205 686.335 261.274 Q686.868 261.321 687.516 261.436 L687.539 265.811 Z" fill="#000000" fill-rule="nonzero" fill-opacity="1"></path><path clip-path="url(#clip630)" d="M713.141 273.728 L713.141 275.811 L693.558 275.811 Q693.835 280.209 696.196 282.524 Q698.581 284.816 702.817 284.816 Q705.27 284.816 707.562 284.214 Q709.877 283.612 712.145 282.409 L712.145 286.436 Q709.854 287.408 707.446 287.918 Q705.039 288.427 702.562 288.427 Q696.358 288.427 692.724 284.816 Q689.113 281.205 689.113 275.047 Q689.113 268.682 692.539 264.955 Q695.988 261.205 701.821 261.205 Q707.053 261.205 710.085 264.585 Q713.141 267.941 713.141 273.728 M708.882 272.478 Q708.835 268.983 706.914 266.899 Q705.016 264.816 701.868 264.816 Q698.303 264.816 696.15 266.83 Q694.021 268.844 693.696 272.501 L708.882 272.478 Z" fill="#000000" fill-rule="nonzero" fill-opacity="1"></path><path clip-path="url(#clip630)" d="M742.307 273.728 L742.307 275.811 L722.724 275.811 Q723.002 280.209 725.363 282.524 Q727.747 284.816 731.983 284.816 Q734.437 284.816 736.729 284.214 Q739.043 283.612 741.312 282.409 L741.312 286.436 Q739.02 287.408 736.613 287.918 Q734.205 288.427 731.729 288.427 Q725.525 288.427 721.891 284.816 Q718.28 281.205 718.28 275.047 Q718.28 268.682 721.706 264.955 Q725.155 261.205 730.988 261.205 Q736.219 261.205 739.252 264.585 Q742.307 267.941 742.307 273.728 M738.048 272.478 Q738.002 268.983 736.08 266.899 Q734.182 264.816 731.034 264.816 Q727.469 264.816 725.317 266.83 Q723.187 268.844 722.863 272.501 L738.048 272.478 Z" fill="#000000" fill-rule="nonzero" fill-opacity="1"></path><path clip-path="url(#clip630)" d="M765.016 253.196 L783.372 253.196 L783.372 257.131 L769.298 257.131 L769.298 265.603 Q770.316 265.256 771.335 265.094 Q772.353 264.909 773.372 264.909 Q779.159 264.909 782.539 268.08 Q785.918 271.251 785.918 276.668 Q785.918 282.246 782.446 285.348 Q778.974 288.427 772.654 288.427 Q770.478 288.427 768.21 288.057 Q765.965 287.686 763.557 286.946 L763.557 282.246 Q765.64 283.381 767.863 283.936 Q770.085 284.492 772.562 284.492 Q776.566 284.492 778.904 282.385 Q781.242 280.279 781.242 276.668 Q781.242 273.057 778.904 270.95 Q776.566 268.844 772.562 268.844 Q770.687 268.844 768.812 269.26 Q766.96 269.677 765.016 270.557 L765.016 253.196 Z" fill="#000000" fill-rule="nonzero" fill-opacity="1"></path></svg>