<svg xmlns="http://www.w3.org/2000/svg" xmlns:xlink="http://www.w3.org/1999/xlink" width="600" height="400" viewBox="0 0 2400 1600">
<defs>
  <clipPath id="clip670">
    <rect x="0" y="0" width="2400" height="1600"></rect>
  </clipPath>
</defs>
<path clip-path="url(#clip670)" d="M0 1600 L2400 1600 L2400 8.88178e-14 L0 8.88178e-14  Z" fill="#ffffff" fill-rule="evenodd" fill-opacity="1"></path>
<defs>
  <clipPath id="clip671">
    <rect x="480" y="0" width="1681" height="1600"></rect>
  </clipPath>
</defs>
<path clip-path="url(#clip670)" d="M262.551 1423.18 L2352.76 1423.18 L2352.76 123.472 L262.551 123.472  Z" fill="#ffffff" fill-rule="evenodd" fill-opacity="1"></path>
<defs>
  <clipPath id="clip672">
    <rect x="262" y="123" width="2091" height="1301"></rect>
  </clipPath>
</defs>
<polyline clip-path="url(#clip672)" style="stroke:#000000; stroke-linecap:round; stroke-linejoin:round; stroke-width:2; stroke-opacity:0.1; fill:none" points="633.059,1423.18 633.059,123.472 "></polyline>
<polyline clip-path="url(#clip672)" style="stroke:#000000; stroke-linecap:round; stroke-linejoin:round; stroke-width:2; stroke-opacity:0.1; fill:none" points="1048.19,1423.18 1048.19,123.472 "></polyline>
<polyline clip-path="url(#clip672)" style="stroke:#000000; stroke-linecap:round; stroke-linejoin:round; stroke-width:2; stroke-opacity:0.1; fill:none" points="1463.33,1423.18 1463.33,123.472 "></polyline>
<polyline clip-path="url(#clip672)" style="stroke:#000000; stroke-linecap:round; stroke-linejoin:round; stroke-width:2; stroke-opacity:0.1; fill:none" points="1878.46,1423.18 1878.46,123.472 "></polyline>
<polyline clip-path="url(#clip672)" style="stroke:#000000; stroke-linecap:round; stroke-linejoin:round; stroke-width:2; stroke-opacity:0.1; fill:none" points="2293.6,1423.18 2293.6,123.472 "></polyline>
<polyline clip-path="url(#clip672)" style="stroke:#000000; stroke-linecap:round; stroke-linejoin:round; stroke-width:2; stroke-opacity:0.1; fill:none" points="262.551,1259.93 2352.76,1259.93 "></polyline>
<polyline clip-path="url(#clip672)" style="stroke:#000000; stroke-linecap:round; stroke-linejoin:round; stroke-width:2; stroke-opacity:0.1; fill:none" points="262.551,985.014 2352.76,985.014 "></polyline>
<polyline clip-path="url(#clip672)" style="stroke:#000000; stroke-linecap:round; stroke-linejoin:round; stroke-width:2; stroke-opacity:0.1; fill:none" points="262.551,710.095 2352.76,710.095 "></polyline>
<polyline clip-path="url(#clip672)" style="stroke:#000000; stroke-linecap:round; stroke-linejoin:round; stroke-width:2; stroke-opacity:0.1; fill:none" points="262.551,435.175 2352.76,435.175 "></polyline>
<polyline clip-path="url(#clip672)" style="stroke:#000000; stroke-linecap:round; stroke-linejoin:round; stroke-width:2; stroke-opacity:0.1; fill:none" points="262.551,160.256 2352.76,160.256 "></polyline>
<polyline clip-path="url(#clip670)" style="stroke:#000000; stroke-linecap:round; stroke-linejoin:round; stroke-width:4; stroke-opacity:1; fill:none" points="262.551,1423.18 2352.76,1423.18 "></polyline>
<polyline clip-path="url(#clip670)" style="stroke:#000000; stroke-linecap:round; stroke-linejoin:round; stroke-width:4; stroke-opacity:1; fill:none" points="633.059,1423.18 633.059,1404.28 "></polyline>
<polyline clip-path="url(#clip670)" style="stroke:#000000; stroke-linecap:round; stroke-linejoin:round; stroke-width:4; stroke-opacity:1; fill:none" points="1048.19,1423.18 1048.19,1404.28 "></polyline>
<polyline clip-path="url(#clip670)" style="stroke:#000000; stroke-linecap:round; stroke-linejoin:round; stroke-width:4; stroke-opacity:1; fill:none" points="1463.33,1423.18 1463.33,1404.28 "></polyline>
<polyline clip-path="url(#clip670)" style="stroke:#000000; stroke-linecap:round; stroke-linejoin:round; stroke-width:4; stroke-opacity:1; fill:none" points="1878.46,1423.18 1878.46,1404.28 "></polyline>
<polyline clip-path="url(#clip670)" style="stroke:#000000; stroke-linecap:round; stroke-linejoin:round; stroke-width:4; stroke-opacity:1; fill:none" points="2293.6,1423.18 2293.6,1404.28 "></polyline>
<path clip-path="url(#clip670)" d="M611.832 1481.64 L628.152 1481.64 L628.152 1485.58 L606.207 1485.58 L606.207 1481.64 Q608.87 1478.89 613.453 1474.26 Q618.059 1469.61 619.24 1468.27 Q621.485 1465.74 622.365 1464.01 Q623.268 1462.25 623.268 1460.56 Q623.268 1457.8 621.323 1456.07 Q619.402 1454.33 616.3 1454.33 Q614.101 1454.33 611.647 1455.09 Q609.217 1455.86 606.439 1457.41 L606.439 1452.69 Q609.263 1451.55 611.717 1450.97 Q614.17 1450.39 616.207 1450.39 Q621.578 1450.39 624.772 1453.08 Q627.967 1455.77 627.967 1460.26 Q627.967 1462.39 627.156 1464.31 Q626.369 1466.2 624.263 1468.8 Q623.684 1469.47 620.582 1472.69 Q617.481 1475.88 611.832 1481.64 Z" fill="#000000" fill-rule="nonzero" fill-opacity="1"></path><path clip-path="url(#clip670)" d="M647.967 1454.1 Q644.355 1454.1 642.527 1457.66 Q640.721 1461.2 640.721 1468.33 Q640.721 1475.44 642.527 1479.01 Q644.355 1482.55 647.967 1482.55 Q651.601 1482.55 653.406 1479.01 Q655.235 1475.44 655.235 1468.33 Q655.235 1461.2 653.406 1457.66 Q651.601 1454.1 647.967 1454.1 M647.967 1450.39 Q653.777 1450.39 656.832 1455 Q659.911 1459.58 659.911 1468.33 Q659.911 1477.06 656.832 1481.67 Q653.777 1486.25 647.967 1486.25 Q642.156 1486.25 639.078 1481.67 Q636.022 1477.06 636.022 1468.33 Q636.022 1459.58 639.078 1455 Q642.156 1450.39 647.967 1450.39 Z" fill="#000000" fill-rule="nonzero" fill-opacity="1"></path><path clip-path="url(#clip670)" d="M1036.37 1455.09 L1024.56 1473.54 L1036.37 1473.54 L1036.37 1455.09 M1035.14 1451.02 L1041.02 1451.02 L1041.02 1473.54 L1045.95 1473.54 L1045.95 1477.43 L1041.02 1477.43 L1041.02 1485.58 L1036.37 1485.58 L1036.37 1477.43 L1020.76 1477.43 L1020.76 1472.92 L1035.14 1451.02 Z" fill="#000000" fill-rule="nonzero" fill-opacity="1"></path><path clip-path="url(#clip670)" d="M1063.68 1454.1 Q1060.07 1454.1 1058.24 1457.66 Q1056.43 1461.2 1056.43 1468.33 Q1056.43 1475.44 1058.24 1479.01 Q1060.07 1482.55 1063.68 1482.55 Q1067.31 1482.55 1069.12 1479.01 Q1070.95 1475.44 1070.95 1468.33 Q1070.95 1461.2 1069.12 1457.66 Q1067.31 1454.1 1063.68 1454.1 M1063.68 1450.39 Q1069.49 1450.39 1072.55 1455 Q1075.62 1459.58 1075.62 1468.33 Q1075.62 1477.06 1072.55 1481.67 Q1069.49 1486.25 1063.68 1486.25 Q1057.87 1486.25 1054.79 1481.67 Q1051.74 1477.06 1051.74 1468.33 Q1051.74 1459.58 1054.79 1455 Q1057.87 1450.39 1063.68 1450.39 Z" fill="#000000" fill-rule="nonzero" fill-opacity="1"></path><path clip-path="url(#clip670)" d="M1448.73 1466.44 Q1445.59 1466.44 1443.73 1468.59 Q1441.91 1470.74 1441.91 1474.49 Q1441.91 1478.22 1443.73 1480.39 Q1445.59 1482.55 1448.73 1482.55 Q1451.88 1482.55 1453.71 1480.39 Q1455.56 1478.22 1455.56 1474.49 Q1455.56 1470.74 1453.71 1468.59 Q1451.88 1466.44 1448.73 1466.44 M1458.02 1451.78 L1458.02 1456.04 Q1456.26 1455.21 1454.45 1454.77 Q1452.67 1454.33 1450.91 1454.33 Q1446.28 1454.33 1443.83 1457.45 Q1441.4 1460.58 1441.05 1466.9 Q1442.41 1464.89 1444.48 1463.82 Q1446.54 1462.73 1449.01 1462.73 Q1454.22 1462.73 1457.23 1465.9 Q1460.26 1469.05 1460.26 1474.49 Q1460.26 1479.82 1457.11 1483.03 Q1453.97 1486.25 1448.73 1486.25 Q1442.74 1486.25 1439.57 1481.67 Q1436.4 1477.06 1436.4 1468.33 Q1436.4 1460.14 1440.29 1455.28 Q1444.17 1450.39 1450.73 1450.39 Q1452.48 1450.39 1454.27 1450.74 Q1456.07 1451.09 1458.02 1451.78 Z" fill="#000000" fill-rule="nonzero" fill-opacity="1"></path><path clip-path="url(#clip670)" d="M1478.32 1454.1 Q1474.71 1454.1 1472.88 1457.66 Q1471.07 1461.2 1471.07 1468.33 Q1471.07 1475.44 1472.88 1479.01 Q1474.71 1482.55 1478.32 1482.55 Q1481.95 1482.55 1483.76 1479.01 Q1485.59 1475.44 1485.59 1468.33 Q1485.59 1461.2 1483.76 1457.66 Q1481.95 1454.1 1478.32 1454.1 M1478.32 1450.39 Q1484.13 1450.39 1487.18 1455 Q1490.26 1459.58 1490.26 1468.33 Q1490.26 1477.06 1487.18 1481.67 Q1484.13 1486.25 1478.32 1486.25 Q1472.51 1486.25 1469.43 1481.67 Q1466.37 1477.06 1466.37 1468.33 Q1466.37 1459.58 1469.43 1455 Q1472.51 1450.39 1478.32 1450.39 Z" fill="#000000" fill-rule="nonzero" fill-opacity="1"></path><path clip-path="url(#clip670)" d="M1863.34 1469.17 Q1860 1469.17 1858.08 1470.95 Q1856.18 1472.73 1856.18 1475.86 Q1856.18 1478.98 1858.08 1480.77 Q1860 1482.55 1863.34 1482.55 Q1866.67 1482.55 1868.59 1480.77 Q1870.51 1478.96 1870.51 1475.86 Q1870.51 1472.73 1868.59 1470.95 Q1866.69 1469.17 1863.34 1469.17 M1858.66 1467.18 Q1855.65 1466.44 1853.96 1464.38 Q1852.3 1462.32 1852.3 1459.35 Q1852.3 1455.21 1855.24 1452.8 Q1858.2 1450.39 1863.34 1450.39 Q1868.5 1450.39 1871.44 1452.8 Q1874.38 1455.21 1874.38 1459.35 Q1874.38 1462.32 1872.69 1464.38 Q1871.02 1466.44 1868.04 1467.18 Q1871.42 1467.96 1873.29 1470.26 Q1875.19 1472.55 1875.19 1475.86 Q1875.19 1480.88 1872.11 1483.57 Q1869.05 1486.25 1863.34 1486.25 Q1857.62 1486.25 1854.54 1483.57 Q1851.49 1480.88 1851.49 1475.86 Q1851.49 1472.55 1853.38 1470.26 Q1855.28 1467.96 1858.66 1467.18 M1856.95 1459.79 Q1856.95 1462.48 1858.61 1463.98 Q1860.3 1465.49 1863.34 1465.49 Q1866.35 1465.49 1868.04 1463.98 Q1869.75 1462.48 1869.75 1459.79 Q1869.75 1457.11 1868.04 1455.6 Q1866.35 1454.1 1863.34 1454.1 Q1860.3 1454.1 1858.61 1455.6 Q1856.95 1457.11 1856.95 1459.79 Z" fill="#000000" fill-rule="nonzero" fill-opacity="1"></path><path clip-path="url(#clip670)" d="M1893.5 1454.1 Q1889.89 1454.1 1888.06 1457.66 Q1886.25 1461.2 1886.25 1468.33 Q1886.25 1475.44 1888.06 1479.01 Q1889.89 1482.55 1893.5 1482.55 Q1897.13 1482.55 1898.94 1479.01 Q1900.77 1475.44 1900.77 1468.33 Q1900.77 1461.2 1898.94 1457.66 Q1897.13 1454.1 1893.5 1454.1 M1893.5 1450.39 Q1899.31 1450.39 1902.36 1455 Q1905.44 1459.58 1905.44 1468.33 Q1905.44 1477.06 1902.36 1481.67 Q1899.31 1486.25 1893.5 1486.25 Q1887.69 1486.25 1884.61 1481.67 Q1881.55 1477.06 1881.55 1468.33 Q1881.55 1459.58 1884.61 1455 Q1887.69 1450.39 1893.5 1450.39 Z" fill="#000000" fill-rule="nonzero" fill-opacity="1"></path><path clip-path="url(#clip670)" d="M2253.21 1481.64 L2260.84 1481.64 L2260.84 1455.28 L2252.53 1456.95 L2252.53 1452.69 L2260.8 1451.02 L2265.47 1451.02 L2265.47 1481.64 L2273.11 1481.64 L2273.11 1485.58 L2253.21 1485.58 L2253.21 1481.64 Z" fill="#000000" fill-rule="nonzero" fill-opacity="1"></path><path clip-path="url(#clip670)" d="M2292.56 1454.1 Q2288.95 1454.1 2287.12 1457.66 Q2285.31 1461.2 2285.31 1468.33 Q2285.31 1475.44 2287.12 1479.01 Q2288.95 1482.55 2292.56 1482.55 Q2296.19 1482.55 2298 1479.01 Q2299.83 1475.44 2299.83 1468.33 Q2299.83 1461.2 2298 1457.66 Q2296.19 1454.1 2292.56 1454.1 M2292.56 1450.39 Q2298.37 1450.39 2301.42 1455 Q2304.5 1459.58 2304.5 1468.33 Q2304.5 1477.06 2301.42 1481.67 Q2298.37 1486.25 2292.56 1486.25 Q2286.75 1486.25 2283.67 1481.67 Q2280.61 1477.06 2280.61 1468.33 Q2280.61 1459.58 2283.67 1455 Q2286.75 1450.39 2292.56 1450.39 Z" fill="#000000" fill-rule="nonzero" fill-opacity="1"></path><path clip-path="url(#clip670)" d="M2322.72 1454.1 Q2319.11 1454.1 2317.28 1457.66 Q2315.47 1461.2 2315.47 1468.33 Q2315.47 1475.44 2317.28 1479.01 Q2319.11 1482.55 2322.72 1482.55 Q2326.35 1482.55 2328.16 1479.01 Q2329.99 1475.44 2329.99 1468.33 Q2329.99 1461.2 2328.16 1457.66 Q2326.35 1454.1 2322.72 1454.1 M2322.72 1450.39 Q2328.53 1450.39 2331.59 1455 Q2334.66 1459.58 2334.66 1468.33 Q2334.66 1477.06 2331.59 1481.67 Q2328.53 1486.25 2322.72 1486.25 Q2316.91 1486.25 2313.83 1481.67 Q2310.78 1477.06 2310.78 1468.33 Q2310.78 1459.58 2313.83 1455 Q2316.91 1450.39 2322.72 1450.39 Z" fill="#000000" fill-rule="nonzero" fill-opacity="1"></path><path clip-path="url(#clip670)" d="M1132.14 1522.08 L1132.14 1528.35 Q1128.47 1526.6 1125.23 1525.74 Q1121.98 1524.88 1118.96 1524.88 Q1113.71 1524.88 1110.84 1526.92 Q1108.01 1528.96 1108.01 1532.71 Q1108.01 1535.87 1109.89 1537.49 Q1111.8 1539.08 1117.08 1540.07 L1120.96 1540.86 Q1128.16 1542.23 1131.56 1545.7 Q1135 1549.14 1135 1554.93 Q1135 1561.84 1130.35 1565.4 Q1125.74 1568.97 1116.79 1568.97 Q1113.42 1568.97 1109.6 1568.2 Q1105.81 1567.44 1101.74 1565.94 L1101.74 1559.32 Q1105.65 1561.52 1109.41 1562.63 Q1113.17 1563.75 1116.79 1563.75 Q1122.3 1563.75 1125.29 1561.58 Q1128.28 1559.42 1128.28 1555.41 Q1128.28 1551.91 1126.12 1549.93 Q1123.99 1547.96 1119.09 1546.97 L1115.17 1546.21 Q1107.98 1544.78 1104.76 1541.72 Q1101.55 1538.67 1101.55 1533.22 Q1101.55 1526.92 1105.97 1523.29 Q1110.43 1519.66 1118.23 1519.66 Q1121.57 1519.66 1125.04 1520.27 Q1128.51 1520.87 1132.14 1522.08 Z" fill="#000000" fill-rule="nonzero" fill-opacity="1"></path><path clip-path="url(#clip670)" d="M1150.44 1562.7 L1150.44 1581.6 L1144.55 1581.6 L1144.55 1532.4 L1150.44 1532.4 L1150.44 1537.81 Q1152.28 1534.62 1155.08 1533.1 Q1157.92 1531.54 1161.83 1531.54 Q1168.32 1531.54 1172.37 1536.69 Q1176.44 1541.85 1176.44 1550.25 Q1176.44 1558.65 1172.37 1563.81 Q1168.32 1568.97 1161.83 1568.97 Q1157.92 1568.97 1155.08 1567.44 Q1152.28 1565.88 1150.44 1562.7 M1170.36 1550.25 Q1170.36 1543.79 1167.69 1540.13 Q1165.05 1536.44 1160.4 1536.44 Q1155.75 1536.44 1153.08 1540.13 Q1150.44 1543.79 1150.44 1550.25 Q1150.44 1556.71 1153.08 1560.4 Q1155.75 1564.07 1160.4 1564.07 Q1165.05 1564.07 1167.69 1560.4 Q1170.36 1556.71 1170.36 1550.25 Z" fill="#000000" fill-rule="nonzero" fill-opacity="1"></path><path clip-path="url(#clip670)" d="M1216.64 1548.76 L1216.64 1551.62 L1189.71 1551.62 Q1190.09 1557.67 1193.34 1560.85 Q1196.62 1564 1202.44 1564 Q1205.82 1564 1208.97 1563.17 Q1212.15 1562.35 1215.27 1560.69 L1215.27 1566.23 Q1212.12 1567.57 1208.81 1568.27 Q1205.5 1568.97 1202.09 1568.97 Q1193.56 1568.97 1188.57 1564 Q1183.6 1559.04 1183.6 1550.57 Q1183.6 1541.82 1188.31 1536.69 Q1193.05 1531.54 1201.08 1531.54 Q1208.27 1531.54 1212.44 1536.18 Q1216.64 1540.8 1216.64 1548.76 M1210.78 1547.04 Q1210.72 1542.23 1208.08 1539.37 Q1205.47 1536.5 1201.14 1536.5 Q1196.24 1536.5 1193.28 1539.27 Q1190.35 1542.04 1189.9 1547.07 L1210.78 1547.04 Z" fill="#000000" fill-rule="nonzero" fill-opacity="1"></path><path clip-path="url(#clip670)" d="M1256.74 1548.76 L1256.74 1551.62 L1229.82 1551.62 Q1230.2 1557.67 1233.45 1560.85 Q1236.72 1564 1242.55 1564 Q1245.92 1564 1249.07 1563.17 Q1252.26 1562.35 1255.38 1560.69 L1255.38 1566.23 Q1252.22 1567.57 1248.91 1568.27 Q1245.6 1568.97 1242.2 1568.97 Q1233.67 1568.97 1228.67 1564 Q1223.71 1559.04 1223.71 1550.57 Q1223.71 1541.82 1228.42 1536.69 Q1233.16 1531.54 1241.18 1531.54 Q1248.37 1531.54 1252.54 1536.18 Q1256.74 1540.8 1256.74 1548.76 M1250.89 1547.04 Q1250.82 1542.23 1248.18 1539.37 Q1245.57 1536.5 1241.24 1536.5 Q1236.34 1536.5 1233.38 1539.27 Q1230.45 1542.04 1230.01 1547.07 L1250.89 1547.04 Z" fill="#000000" fill-rule="nonzero" fill-opacity="1"></path><path clip-path="url(#clip670)" d="M1289.81 1537.81 L1289.81 1518.52 L1295.67 1518.52 L1295.67 1568.04 L1289.81 1568.04 L1289.81 1562.7 Q1287.97 1565.88 1285.13 1567.44 Q1282.33 1568.97 1278.39 1568.97 Q1271.93 1568.97 1267.85 1563.81 Q1263.81 1558.65 1263.81 1550.25 Q1263.81 1541.85 1267.85 1536.69 Q1271.93 1531.54 1278.39 1531.54 Q1282.33 1531.54 1285.13 1533.1 Q1287.97 1534.62 1289.81 1537.81 M1269.86 1550.25 Q1269.86 1556.71 1272.5 1560.4 Q1275.17 1564.07 1279.82 1564.07 Q1284.47 1564.07 1287.14 1560.4 Q1289.81 1556.71 1289.81 1550.25 Q1289.81 1543.79 1287.14 1540.13 Q1284.47 1536.44 1279.82 1536.44 Q1275.17 1536.44 1272.5 1540.13 Q1269.86 1543.79 1269.86 1550.25 Z" fill="#000000" fill-rule="nonzero" fill-opacity="1"></path><path clip-path="url(#clip670)" d="M1342.52 1518.58 Q1338.26 1525.9 1336.19 1533.06 Q1334.12 1540.23 1334.12 1547.58 Q1334.12 1554.93 1336.19 1562.16 Q1338.29 1569.35 1342.52 1576.64 L1337.43 1576.64 Q1332.65 1569.16 1330.27 1561.93 Q1327.91 1554.71 1327.91 1547.58 Q1327.91 1540.48 1330.27 1533.29 Q1332.62 1526.09 1337.43 1518.58 L1342.52 1518.58 Z" fill="#000000" fill-rule="nonzero" fill-opacity="1"></path><path clip-path="url(#clip670)" d="M1381.64 1539.24 Q1383.84 1535.29 1386.89 1533.41 Q1389.95 1531.54 1394.08 1531.54 Q1399.65 1531.54 1402.68 1535.45 Q1405.7 1539.33 1405.7 1546.53 L1405.7 1568.04 L1399.81 1568.04 L1399.81 1546.72 Q1399.81 1541.59 1398 1539.11 Q1396.18 1536.63 1392.46 1536.63 Q1387.91 1536.63 1385.27 1539.65 Q1382.63 1542.68 1382.63 1547.9 L1382.63 1568.04 L1376.74 1568.04 L1376.74 1546.72 Q1376.74 1541.56 1374.92 1539.11 Q1373.11 1536.63 1369.32 1536.63 Q1364.83 1536.63 1362.19 1539.68 Q1359.55 1542.71 1359.55 1547.9 L1359.55 1568.04 L1353.66 1568.04 L1353.66 1532.4 L1359.55 1532.4 L1359.55 1537.93 Q1361.56 1534.66 1364.36 1533.1 Q1367.16 1531.54 1371.01 1531.54 Q1374.89 1531.54 1377.6 1533.51 Q1380.33 1535.48 1381.64 1539.24 Z" fill="#000000" fill-rule="nonzero" fill-opacity="1"></path><path clip-path="url(#clip670)" d="M1423.05 1562.7 L1423.05 1581.6 L1417.16 1581.6 L1417.16 1532.4 L1423.05 1532.4 L1423.05 1537.81 Q1424.89 1534.62 1427.69 1533.1 Q1430.53 1531.54 1434.44 1531.54 Q1440.94 1531.54 1444.98 1536.69 Q1449.05 1541.85 1449.05 1550.25 Q1449.05 1558.65 1444.98 1563.81 Q1440.94 1568.97 1434.44 1568.97 Q1430.53 1568.97 1427.69 1567.44 Q1424.89 1565.88 1423.05 1562.7 M1442.97 1550.25 Q1442.97 1543.79 1440.3 1540.13 Q1437.66 1536.44 1433.01 1536.44 Q1428.36 1536.44 1425.69 1540.13 Q1423.05 1543.79 1423.05 1550.25 Q1423.05 1556.71 1425.69 1560.4 Q1428.36 1564.07 1433.01 1564.07 Q1437.66 1564.07 1440.3 1560.4 Q1442.97 1556.71 1442.97 1550.25 Z" fill="#000000" fill-rule="nonzero" fill-opacity="1"></path><path clip-path="url(#clip670)" d="M1488.39 1546.53 L1488.39 1568.04 L1482.54 1568.04 L1482.54 1546.72 Q1482.54 1541.66 1480.56 1539.14 Q1478.59 1536.63 1474.64 1536.63 Q1469.9 1536.63 1467.16 1539.65 Q1464.43 1542.68 1464.43 1547.9 L1464.43 1568.04 L1458.54 1568.04 L1458.54 1518.52 L1464.43 1518.52 L1464.43 1537.93 Q1466.53 1534.72 1469.36 1533.13 Q1472.22 1531.54 1475.95 1531.54 Q1482.09 1531.54 1485.24 1535.36 Q1488.39 1539.14 1488.39 1546.53 Z" fill="#000000" fill-rule="nonzero" fill-opacity="1"></path><path clip-path="url(#clip670)" d="M1499.15 1518.58 L1504.24 1518.58 Q1509.02 1526.09 1511.37 1533.29 Q1513.76 1540.48 1513.76 1547.58 Q1513.76 1554.71 1511.37 1561.93 Q1509.02 1569.16 1504.24 1576.64 L1499.15 1576.64 Q1503.38 1569.35 1505.45 1562.16 Q1507.55 1554.93 1507.55 1547.58 Q1507.55 1540.23 1505.45 1533.06 Q1503.38 1525.9 1499.15 1518.58 Z" fill="#000000" fill-rule="nonzero" fill-opacity="1"></path><polyline clip-path="url(#clip670)" style="stroke:#000000; stroke-linecap:round; stroke-linejoin:round; stroke-width:4; stroke-opacity:1; fill:none" points="262.551,1423.18 262.551,123.472 "></polyline>
<polyline clip-path="url(#clip670)" style="stroke:#000000; stroke-linecap:round; stroke-linejoin:round; stroke-width:4; stroke-opacity:1; fill:none" points="262.551,1259.93 281.449,1259.93 "></polyline>
<polyline clip-path="url(#clip670)" style="stroke:#000000; stroke-linecap:round; stroke-linejoin:round; stroke-width:4; stroke-opacity:1; fill:none" points="262.551,985.014 281.449,985.014 "></polyline>
<polyline clip-path="url(#clip670)" style="stroke:#000000; stroke-linecap:round; stroke-linejoin:round; stroke-width:4; stroke-opacity:1; fill:none" points="262.551,710.095 281.449,710.095 "></polyline>
<polyline clip-path="url(#clip670)" style="stroke:#000000; stroke-linecap:round; stroke-linejoin:round; stroke-width:4; stroke-opacity:1; fill:none" points="262.551,435.175 281.449,435.175 "></polyline>
<polyline clip-path="url(#clip670)" style="stroke:#000000; stroke-linecap:round; stroke-linejoin:round; stroke-width:4; stroke-opacity:1; fill:none" points="262.551,160.256 281.449,160.256 "></polyline>
<path clip-path="url(#clip670)" d="M157.13 1246.73 L145.325 1265.18 L157.13 1265.18 L157.13 1246.73 M155.903 1242.65 L161.783 1242.65 L161.783 1265.18 L166.714 1265.18 L166.714 1269.06 L161.783 1269.06 L161.783 1277.21 L157.13 1277.21 L157.13 1269.06 L141.529 1269.06 L141.529 1264.55 L155.903 1242.65 Z" fill="#000000" fill-rule="nonzero" fill-opacity="1"></path><path clip-path="url(#clip670)" d="M184.445 1245.73 Q180.834 1245.73 179.005 1249.3 Q177.2 1252.84 177.2 1259.97 Q177.2 1267.07 179.005 1270.64 Q180.834 1274.18 184.445 1274.18 Q188.079 1274.18 189.885 1270.64 Q191.713 1267.07 191.713 1259.97 Q191.713 1252.84 189.885 1249.3 Q188.079 1245.73 184.445 1245.73 M184.445 1242.03 Q190.255 1242.03 193.311 1246.63 Q196.389 1251.22 196.389 1259.97 Q196.389 1268.69 193.311 1273.3 Q190.255 1277.88 184.445 1277.88 Q178.635 1277.88 175.556 1273.3 Q172.501 1268.69 172.501 1259.97 Q172.501 1251.22 175.556 1246.63 Q178.635 1242.03 184.445 1242.03 Z" fill="#000000" fill-rule="nonzero" fill-opacity="1"></path><path clip-path="url(#clip670)" d="M214.607 1245.73 Q210.996 1245.73 209.167 1249.3 Q207.362 1252.84 207.362 1259.97 Q207.362 1267.07 209.167 1270.64 Q210.996 1274.18 214.607 1274.18 Q218.241 1274.18 220.047 1270.64 Q221.875 1267.07 221.875 1259.97 Q221.875 1252.84 220.047 1249.3 Q218.241 1245.73 214.607 1245.73 M214.607 1242.03 Q220.417 1242.03 223.473 1246.63 Q226.551 1251.22 226.551 1259.97 Q226.551 1268.69 223.473 1273.3 Q220.417 1277.88 214.607 1277.88 Q208.797 1277.88 205.718 1273.3 Q202.662 1268.69 202.662 1259.97 Q202.662 1251.22 205.718 1246.63 Q208.797 1242.03 214.607 1242.03 Z" fill="#000000" fill-rule="nonzero" fill-opacity="1"></path><path clip-path="url(#clip670)" d="M154.862 983.15 Q151.714 983.15 149.862 985.303 Q148.033 987.456 148.033 991.206 Q148.033 994.933 149.862 997.109 Q151.714 999.261 154.862 999.261 Q158.01 999.261 159.839 997.109 Q161.69 994.933 161.69 991.206 Q161.69 987.456 159.839 985.303 Q158.01 983.15 154.862 983.15 M164.144 968.498 L164.144 972.757 Q162.385 971.924 160.579 971.484 Q158.797 971.044 157.038 971.044 Q152.408 971.044 149.954 974.169 Q147.524 977.294 147.177 983.613 Q148.542 981.599 150.603 980.535 Q152.663 979.447 155.14 979.447 Q160.348 979.447 163.357 982.618 Q166.39 985.766 166.39 991.206 Q166.39 996.53 163.241 999.747 Q160.093 1002.97 154.862 1002.97 Q148.866 1002.97 145.695 998.382 Q142.524 993.775 142.524 985.048 Q142.524 976.854 146.413 971.993 Q150.302 967.109 156.853 967.109 Q158.612 967.109 160.394 967.456 Q162.2 967.803 164.144 968.498 Z" fill="#000000" fill-rule="nonzero" fill-opacity="1"></path><path clip-path="url(#clip670)" d="M184.445 970.812 Q180.834 970.812 179.005 974.377 Q177.2 977.919 177.2 985.048 Q177.2 992.155 179.005 995.72 Q180.834 999.261 184.445 999.261 Q188.079 999.261 189.885 995.72 Q191.713 992.155 191.713 985.048 Q191.713 977.919 189.885 974.377 Q188.079 970.812 184.445 970.812 M184.445 967.109 Q190.255 967.109 193.311 971.715 Q196.389 976.298 196.389 985.048 Q196.389 993.775 193.311 998.382 Q190.255 1002.97 184.445 1002.97 Q178.635 1002.97 175.556 998.382 Q172.501 993.775 172.501 985.048 Q172.501 976.298 175.556 971.715 Q178.635 967.109 184.445 967.109 Z" fill="#000000" fill-rule="nonzero" fill-opacity="1"></path><path clip-path="url(#clip670)" d="M214.607 970.812 Q210.996 970.812 209.167 974.377 Q207.362 977.919 207.362 985.048 Q207.362 992.155 209.167 995.72 Q210.996 999.261 214.607 999.261 Q218.241 999.261 220.047 995.72 Q221.875 992.155 221.875 985.048 Q221.875 977.919 220.047 974.377 Q218.241 970.812 214.607 970.812 M214.607 967.109 Q220.417 967.109 223.473 971.715 Q226.551 976.298 226.551 985.048 Q226.551 993.775 223.473 998.382 Q220.417 1002.97 214.607 1002.97 Q208.797 1002.97 205.718 998.382 Q202.662 993.775 202.662 985.048 Q202.662 976.298 205.718 971.715 Q208.797 967.109 214.607 967.109 Z" fill="#000000" fill-rule="nonzero" fill-opacity="1"></path><path clip-path="url(#clip670)" d="M154.283 710.963 Q150.95 710.963 149.028 712.745 Q147.13 714.527 147.13 717.652 Q147.13 720.777 149.028 722.56 Q150.95 724.342 154.283 724.342 Q157.616 724.342 159.538 722.56 Q161.459 720.754 161.459 717.652 Q161.459 714.527 159.538 712.745 Q157.64 710.963 154.283 710.963 M149.607 708.972 Q146.598 708.231 144.908 706.171 Q143.241 704.111 143.241 701.148 Q143.241 697.004 146.181 694.597 Q149.144 692.19 154.283 692.19 Q159.445 692.19 162.385 694.597 Q165.325 697.004 165.325 701.148 Q165.325 704.111 163.635 706.171 Q161.968 708.231 158.982 708.972 Q162.362 709.759 164.237 712.051 Q166.135 714.342 166.135 717.652 Q166.135 722.676 163.056 725.361 Q160.001 728.046 154.283 728.046 Q148.566 728.046 145.487 725.361 Q142.431 722.676 142.431 717.652 Q142.431 714.342 144.329 712.051 Q146.228 709.759 149.607 708.972 M147.894 701.588 Q147.894 704.273 149.561 705.777 Q151.251 707.282 154.283 707.282 Q157.292 707.282 158.982 705.777 Q160.695 704.273 160.695 701.588 Q160.695 698.903 158.982 697.398 Q157.292 695.893 154.283 695.893 Q151.251 695.893 149.561 697.398 Q147.894 698.903 147.894 701.588 Z" fill="#000000" fill-rule="nonzero" fill-opacity="1"></path><path clip-path="url(#clip670)" d="M184.445 695.893 Q180.834 695.893 179.005 699.458 Q177.2 703 177.2 710.129 Q177.2 717.236 179.005 720.801 Q180.834 724.342 184.445 724.342 Q188.079 724.342 189.885 720.801 Q191.713 717.236 191.713 710.129 Q191.713 703 189.885 699.458 Q188.079 695.893 184.445 695.893 M184.445 692.19 Q190.255 692.19 193.311 696.796 Q196.389 701.379 196.389 710.129 Q196.389 718.856 193.311 723.463 Q190.255 728.046 184.445 728.046 Q178.635 728.046 175.556 723.463 Q172.501 718.856 172.501 710.129 Q172.501 701.379 175.556 696.796 Q178.635 692.19 184.445 692.19 Z" fill="#000000" fill-rule="nonzero" fill-opacity="1"></path><path clip-path="url(#clip670)" d="M214.607 695.893 Q210.996 695.893 209.167 699.458 Q207.362 703 207.362 710.129 Q207.362 717.236 209.167 720.801 Q210.996 724.342 214.607 724.342 Q218.241 724.342 220.047 720.801 Q221.875 717.236 221.875 710.129 Q221.875 703 220.047 699.458 Q218.241 695.893 214.607 695.893 M214.607 692.19 Q220.417 692.19 223.473 696.796 Q226.551 701.379 226.551 710.129 Q226.551 718.856 223.473 723.463 Q220.417 728.046 214.607 728.046 Q208.797 728.046 205.718 723.463 Q202.662 718.856 202.662 710.129 Q202.662 701.379 205.718 696.796 Q208.797 692.19 214.607 692.19 Z" fill="#000000" fill-rule="nonzero" fill-opacity="1"></path><path clip-path="url(#clip670)" d="M114.931 448.52 L122.57 448.52 L122.57 422.155 L114.26 423.821 L114.26 419.562 L122.524 417.895 L127.2 417.895 L127.2 448.52 L134.839 448.52 L134.839 452.455 L114.931 452.455 L114.931 448.52 Z" fill="#000000" fill-rule="nonzero" fill-opacity="1"></path><path clip-path="url(#clip670)" d="M154.283 420.974 Q150.672 420.974 148.843 424.539 Q147.038 428.081 147.038 435.21 Q147.038 442.317 148.843 445.881 Q150.672 449.423 154.283 449.423 Q157.917 449.423 159.723 445.881 Q161.552 442.317 161.552 435.21 Q161.552 428.081 159.723 424.539 Q157.917 420.974 154.283 420.974 M154.283 417.27 Q160.093 417.27 163.149 421.877 Q166.227 426.46 166.227 435.21 Q166.227 443.937 163.149 448.543 Q160.093 453.127 154.283 453.127 Q148.473 453.127 145.394 448.543 Q142.339 443.937 142.339 435.21 Q142.339 426.46 145.394 421.877 Q148.473 417.27 154.283 417.27 Z" fill="#000000" fill-rule="nonzero" fill-opacity="1"></path><path clip-path="url(#clip670)" d="M184.445 420.974 Q180.834 420.974 179.005 424.539 Q177.2 428.081 177.2 435.21 Q177.2 442.317 179.005 445.881 Q180.834 449.423 184.445 449.423 Q188.079 449.423 189.885 445.881 Q191.713 442.317 191.713 435.21 Q191.713 428.081 189.885 424.539 Q188.079 420.974 184.445 420.974 M184.445 417.27 Q190.255 417.27 193.311 421.877 Q196.389 426.46 196.389 435.21 Q196.389 443.937 193.311 448.543 Q190.255 453.127 184.445 453.127 Q178.635 453.127 175.556 448.543 Q172.501 443.937 172.501 435.21 Q172.501 426.46 175.556 421.877 Q178.635 417.27 184.445 417.27 Z" fill="#000000" fill-rule="nonzero" fill-opacity="1"></path><path clip-path="url(#clip670)" d="M214.607 420.974 Q210.996 420.974 209.167 424.539 Q207.362 428.081 207.362 435.21 Q207.362 442.317 209.167 445.881 Q210.996 449.423 214.607 449.423 Q218.241 449.423 220.047 445.881 Q221.875 442.317 221.875 435.21 Q221.875 428.081 220.047 424.539 Q218.241 420.974 214.607 420.974 M214.607 417.27 Q220.417 417.27 223.473 421.877 Q226.551 426.46 226.551 435.21 Q226.551 443.937 223.473 448.543 Q220.417 453.127 214.607 453.127 Q208.797 453.127 205.718 448.543 Q202.662 443.937 202.662 435.21 Q202.662 426.46 205.718 421.877 Q208.797 417.27 214.607 417.27 Z" fill="#000000" fill-rule="nonzero" fill-opacity="1"></path><path clip-path="url(#clip670)" d="M114.931 173.601 L122.57 173.601 L122.57 147.236 L114.26 148.902 L114.26 144.643 L122.524 142.976 L127.2 142.976 L127.2 173.601 L134.839 173.601 L134.839 177.536 L114.931 177.536 L114.931 173.601 Z" fill="#000000" fill-rule="nonzero" fill-opacity="1"></path><path clip-path="url(#clip670)" d="M148.311 173.601 L164.63 173.601 L164.63 177.536 L142.686 177.536 L142.686 173.601 Q145.348 170.847 149.931 166.217 Q154.538 161.564 155.718 160.222 Q157.964 157.698 158.843 155.962 Q159.746 154.203 159.746 152.513 Q159.746 149.759 157.802 148.023 Q155.88 146.286 152.778 146.286 Q150.579 146.286 148.126 147.05 Q145.695 147.814 142.917 149.365 L142.917 144.643 Q145.741 143.509 148.195 142.93 Q150.649 142.351 152.686 142.351 Q158.056 142.351 161.251 145.036 Q164.445 147.722 164.445 152.212 Q164.445 154.342 163.635 156.263 Q162.848 158.161 160.741 160.754 Q160.163 161.425 157.061 164.643 Q153.959 167.837 148.311 173.601 Z" fill="#000000" fill-rule="nonzero" fill-opacity="1"></path><path clip-path="url(#clip670)" d="M184.445 146.055 Q180.834 146.055 179.005 149.62 Q177.2 153.161 177.2 160.291 Q177.2 167.397 179.005 170.962 Q180.834 174.504 184.445 174.504 Q188.079 174.504 189.885 170.962 Q191.713 167.397 191.713 160.291 Q191.713 153.161 189.885 149.62 Q188.079 146.055 184.445 146.055 M184.445 142.351 Q190.255 142.351 193.311 146.958 Q196.389 151.541 196.389 160.291 Q196.389 169.018 193.311 173.624 Q190.255 178.208 184.445 178.208 Q178.635 178.208 175.556 173.624 Q172.501 169.018 172.501 160.291 Q172.501 151.541 175.556 146.958 Q178.635 142.351 184.445 142.351 Z" fill="#000000" fill-rule="nonzero" fill-opacity="1"></path><path clip-path="url(#clip670)" d="M214.607 146.055 Q210.996 146.055 209.167 149.62 Q207.362 153.161 207.362 160.291 Q207.362 167.397 209.167 170.962 Q210.996 174.504 214.607 174.504 Q218.241 174.504 220.047 170.962 Q221.875 167.397 221.875 160.291 Q221.875 153.161 220.047 149.62 Q218.241 146.055 214.607 146.055 M214.607 142.351 Q220.417 142.351 223.473 146.958 Q226.551 151.541 226.551 160.291 Q226.551 169.018 223.473 173.624 Q220.417 178.208 214.607 178.208 Q208.797 178.208 205.718 173.624 Q202.662 169.018 202.662 160.291 Q202.662 151.541 205.718 146.958 Q208.797 142.351 214.607 142.351 Z" fill="#000000" fill-rule="nonzero" fill-opacity="1"></path><path clip-path="url(#clip670)" d="M16.4842 1037.58 L16.4842 1007.54 L21.895 1007.54 L21.895 1031.15 L35.9632 1031.15 L35.9632 1008.52 L41.3741 1008.52 L41.3741 1031.15 L58.5933 1031.15 L58.5933 1006.96 L64.0042 1006.96 L64.0042 1037.58 L16.4842 1037.58 Z" fill="#000000" fill-rule="nonzero" fill-opacity="1"></path><path clip-path="url(#clip670)" d="M35.1993 968.896 Q31.2526 966.7 29.3747 963.645 Q27.4968 960.589 27.4968 956.451 Q27.4968 950.881 31.4117 947.858 Q35.2948 944.834 42.4881 944.834 L64.0042 944.834 L64.0042 950.722 L42.679 950.722 Q37.5546 950.722 35.072 952.537 Q32.5894 954.351 32.5894 958.075 Q32.5894 962.626 35.6131 965.268 Q38.6368 967.91 43.8567 967.91 L64.0042 967.91 L64.0042 973.798 L42.679 973.798 Q37.5228 973.798 35.072 975.612 Q32.5894 977.426 32.5894 981.214 Q32.5894 985.702 35.6449 988.344 Q38.6686 990.985 43.8567 990.985 L64.0042 990.985 L64.0042 996.874 L28.3562 996.874 L28.3562 990.985 L33.8944 990.985 Q30.616 988.98 29.0564 986.179 Q27.4968 983.378 27.4968 979.527 Q27.4968 975.644 29.4702 972.939 Q31.4436 970.201 35.1993 968.896 Z" fill="#000000" fill-rule="nonzero" fill-opacity="1"></path><path clip-path="url(#clip670)" d="M28.3562 933.153 L28.3562 927.297 L64.0042 927.297 L64.0042 933.153 L28.3562 933.153 M14.479 933.153 L14.479 927.297 L21.895 927.297 L21.895 933.153 L14.479 933.153 Z" fill="#000000" fill-rule="nonzero" fill-opacity="1"></path><path clip-path="url(#clip670)" d="M29.4065 892.317 L34.9447 892.317 Q33.6716 894.8 33.035 897.473 Q32.3984 900.147 32.3984 903.011 Q32.3984 907.372 33.7352 909.568 Q35.072 911.732 37.7456 911.732 Q39.7826 911.732 40.9603 910.173 Q42.1061 908.613 43.1565 903.903 L43.6021 901.897 Q44.9389 895.659 47.3897 893.049 Q49.8086 890.407 54.1691 890.407 Q59.1344 890.407 62.0308 894.354 Q64.9272 898.269 64.9272 905.144 Q64.9272 908.008 64.3543 911.128 Q63.8132 914.215 62.6992 917.652 L56.6518 917.652 Q58.3387 914.406 59.198 911.255 Q60.0256 908.104 60.0256 905.017 Q60.0256 900.879 58.6251 898.651 Q57.1929 896.423 54.6147 896.423 Q52.2276 896.423 50.9545 898.046 Q49.6813 899.638 48.5037 905.08 L48.0262 907.117 Q46.8804 912.56 44.5251 914.979 Q42.138 917.398 38.0002 917.398 Q32.9713 917.398 30.2341 913.833 Q27.4968 910.268 27.4968 903.712 Q27.4968 900.465 27.9743 897.6 Q28.4517 894.736 29.4065 892.317 Z" fill="#000000" fill-rule="nonzero" fill-opacity="1"></path><path clip-path="url(#clip670)" d="M29.4065 858.356 L34.9447 858.356 Q33.6716 860.839 33.035 863.512 Q32.3984 866.186 32.3984 869.05 Q32.3984 873.411 33.7352 875.607 Q35.072 877.771 37.7456 877.771 Q39.7826 877.771 40.9603 876.212 Q42.1061 874.652 43.1565 869.941 L43.6021 867.936 Q44.9389 861.698 47.3897 859.088 Q49.8086 856.446 54.1691 856.446 Q59.1344 856.446 62.0308 860.393 Q64.9272 864.308 64.9272 871.183 Q64.9272 874.047 64.3543 877.167 Q63.8132 880.254 62.6992 883.691 L56.6518 883.691 Q58.3387 880.445 59.198 877.294 Q60.0256 874.143 60.0256 871.055 Q60.0256 866.918 58.6251 864.69 Q57.1929 862.462 54.6147 862.462 Q52.2276 862.462 50.9545 864.085 Q49.6813 865.676 48.5037 871.119 L48.0262 873.156 Q46.8804 878.599 44.5251 881.018 Q42.138 883.437 38.0002 883.437 Q32.9713 883.437 30.2341 879.872 Q27.4968 876.307 27.4968 869.751 Q27.4968 866.504 27.9743 863.639 Q28.4517 860.775 29.4065 858.356 Z" fill="#000000" fill-rule="nonzero" fill-opacity="1"></path><path clip-path="url(#clip670)" d="M28.3562 847.12 L28.3562 841.264 L64.0042 841.264 L64.0042 847.12 L28.3562 847.12 M14.479 847.12 L14.479 841.264 L21.895 841.264 L21.895 847.12 L14.479 847.12 Z" fill="#000000" fill-rule="nonzero" fill-opacity="1"></path><path clip-path="url(#clip670)" d="M32.4621 815.196 Q32.4621 819.907 36.1542 822.644 Q39.8145 825.382 46.212 825.382 Q52.6095 825.382 56.3017 822.676 Q59.9619 819.939 59.9619 815.196 Q59.9619 810.518 56.2698 807.78 Q52.5777 805.043 46.212 805.043 Q39.8781 805.043 36.186 807.78 Q32.4621 810.518 32.4621 815.196 M27.4968 815.196 Q27.4968 807.558 32.4621 803.197 Q37.4273 798.837 46.212 798.837 Q54.9649 798.837 59.9619 803.197 Q64.9272 807.558 64.9272 815.196 Q64.9272 822.867 59.9619 827.228 Q54.9649 831.556 46.212 831.556 Q37.4273 831.556 32.4621 827.228 Q27.4968 822.867 27.4968 815.196 Z" fill="#000000" fill-rule="nonzero" fill-opacity="1"></path><path clip-path="url(#clip670)" d="M42.4881 759.496 L64.0042 759.496 L64.0042 765.353 L42.679 765.353 Q37.6183 765.353 35.1038 767.326 Q32.5894 769.3 32.5894 773.246 Q32.5894 777.989 35.6131 780.726 Q38.6368 783.463 43.8567 783.463 L64.0042 783.463 L64.0042 789.352 L28.3562 789.352 L28.3562 783.463 L33.8944 783.463 Q30.6797 781.363 29.0883 778.53 Q27.4968 775.665 27.4968 771.941 Q27.4968 765.799 31.3163 762.648 Q35.1038 759.496 42.4881 759.496 Z" fill="#000000" fill-rule="nonzero" fill-opacity="1"></path><path clip-path="url(#clip670)" d="M29.4065 725.09 L34.9447 725.09 Q33.6716 727.572 33.035 730.246 Q32.3984 732.92 32.3984 735.784 Q32.3984 740.145 33.7352 742.341 Q35.072 744.505 37.7456 744.505 Q39.7826 744.505 40.9603 742.946 Q42.1061 741.386 43.1565 736.675 L43.6021 734.67 Q44.9389 728.432 47.3897 725.822 Q49.8086 723.18 54.1691 723.18 Q59.1344 723.18 62.0308 727.127 Q64.9272 731.042 64.9272 737.917 Q64.9272 740.781 64.3543 743.901 Q63.8132 746.988 62.6992 750.425 L56.6518 750.425 Q58.3387 747.179 59.198 744.028 Q60.0256 740.877 60.0256 737.789 Q60.0256 733.652 58.6251 731.424 Q57.1929 729.196 54.6147 729.196 Q52.2276 729.196 50.9545 730.819 Q49.6813 732.41 48.5037 737.853 L48.0262 739.89 Q46.8804 745.333 44.5251 747.752 Q42.138 750.171 38.0002 750.171 Q32.9713 750.171 30.2341 746.606 Q27.4968 743.041 27.4968 736.484 Q27.4968 733.238 27.9743 730.373 Q28.4517 727.509 29.4065 725.09 Z" fill="#000000" fill-rule="nonzero" fill-opacity="1"></path><path clip-path="url(#clip670)" d="M14.5426 679.066 Q21.8632 683.331 29.0246 685.4 Q36.186 687.469 43.5384 687.469 Q50.8908 687.469 58.1159 685.4 Q65.3091 683.299 72.5979 679.066 L72.5979 684.158 Q65.1182 688.933 57.8931 691.32 Q50.668 693.675 43.5384 693.675 Q36.4406 693.675 29.2474 691.32 Q22.0542 688.964 14.5426 684.158 L14.5426 679.066 Z" fill="#000000" fill-rule="nonzero" fill-opacity="1"></path><path clip-path="url(#clip670)" d="M45.7664 644.245 Q39.4007 644.245 35.8996 646.887 Q32.3984 649.497 32.3984 654.24 Q32.3984 658.95 35.8996 661.592 Q39.4007 664.202 45.7664 664.202 Q52.1003 664.202 55.6014 661.592 Q59.1026 658.95 59.1026 654.24 Q59.1026 649.497 55.6014 646.887 Q52.1003 644.245 45.7664 644.245 M59.58 638.389 Q68.683 638.389 73.1071 642.431 Q77.5631 646.473 77.5631 654.812 Q77.5631 657.9 77.0857 660.637 Q76.6401 663.374 75.6852 665.952 L69.9879 665.952 Q71.3884 663.374 72.0568 660.86 Q72.7252 658.345 72.7252 655.735 Q72.7252 649.975 69.7015 647.11 Q66.7096 644.245 60.6303 644.245 L57.7339 644.245 Q60.885 646.06 62.4446 648.892 Q64.0042 651.725 64.0042 655.672 Q64.0042 662.228 59.0071 666.239 Q54.01 670.249 45.7664 670.249 Q37.491 670.249 32.4939 666.239 Q27.4968 662.228 27.4968 655.672 Q27.4968 651.725 29.0564 648.892 Q30.616 646.06 33.7671 644.245 L28.3562 644.245 L28.3562 638.389 L59.58 638.389 Z" fill="#000000" fill-rule="nonzero" fill-opacity="1"></path><path clip-path="url(#clip670)" d="M16.4842 615.918 L16.4842 610.507 L70.0516 627.058 L70.0516 632.469 L16.4842 615.918 Z" fill="#000000" fill-rule="nonzero" fill-opacity="1"></path><path clip-path="url(#clip670)" d="M35.1993 576.61 Q31.2526 574.414 29.3747 571.358 Q27.4968 568.302 27.4968 564.165 Q27.4968 558.595 31.4117 555.571 Q35.2948 552.547 42.4881 552.547 L64.0042 552.547 L64.0042 558.436 L42.679 558.436 Q37.5546 558.436 35.072 560.25 Q32.5894 562.064 32.5894 565.788 Q32.5894 570.34 35.6131 572.981 Q38.6368 575.623 43.8567 575.623 L64.0042 575.623 L64.0042 581.511 L42.679 581.511 Q37.5228 581.511 35.072 583.326 Q32.5894 585.14 32.5894 588.927 Q32.5894 593.415 35.6449 596.057 Q38.6686 598.699 43.8567 598.699 L64.0042 598.699 L64.0042 604.587 L28.3562 604.587 L28.3562 598.699 L33.8944 598.699 Q30.616 596.694 29.0564 593.893 Q27.4968 591.092 27.4968 587.24 Q27.4968 583.357 29.4702 580.652 Q31.4436 577.915 35.1993 576.61 Z" fill="#000000" fill-rule="nonzero" fill-opacity="1"></path><path clip-path="url(#clip670)" d="M28.3562 540.866 L28.3562 535.01 L64.0042 535.01 L64.0042 540.866 L28.3562 540.866 M14.479 540.866 L14.479 535.01 L21.895 535.01 L21.895 540.866 L14.479 540.866 Z" fill="#000000" fill-rule="nonzero" fill-opacity="1"></path><path clip-path="url(#clip670)" d="M14.5426 523.679 L14.5426 518.586 Q22.0542 513.812 29.2474 511.457 Q36.4406 509.07 43.5384 509.07 Q50.668 509.07 57.8931 511.457 Q65.1182 513.812 72.5979 518.586 L72.5979 523.679 Q65.3091 519.446 58.1159 517.377 Q50.8908 515.276 43.5384 515.276 Q36.186 515.276 29.0246 517.377 Q21.8632 519.446 14.5426 523.679 Z" fill="#000000" fill-rule="nonzero" fill-opacity="1"></path><path clip-path="url(#clip670)" d="M581.954 12.096 L620.195 12.096 L620.195 18.9825 L590.137 18.9825 L590.137 36.8875 L618.939 36.8875 L618.939 43.7741 L590.137 43.7741 L590.137 65.6895 L620.924 65.6895 L620.924 72.576 L581.954 72.576 L581.954 12.096 Z" fill="#000000" fill-rule="nonzero" fill-opacity="1"></path><path clip-path="url(#clip670)" d="M669.373 35.9153 Q672.168 30.8922 676.057 28.5022 Q679.946 26.1121 685.212 26.1121 Q692.301 26.1121 696.149 31.0947 Q699.998 36.0368 699.998 45.1919 L699.998 72.576 L692.504 72.576 L692.504 45.4349 Q692.504 38.913 690.194 35.7533 Q687.885 32.5936 683.146 32.5936 Q677.353 32.5936 673.991 36.4419 Q670.629 40.2903 670.629 46.9338 L670.629 72.576 L663.134 72.576 L663.134 45.4349 Q663.134 38.8725 660.825 35.7533 Q658.516 32.5936 653.696 32.5936 Q647.984 32.5936 644.622 36.4824 Q641.26 40.3308 641.26 46.9338 L641.26 72.576 L633.765 72.576 L633.765 27.2059 L641.26 27.2059 L641.26 34.2544 Q643.812 30.082 647.376 28.0971 Q650.941 26.1121 655.843 26.1121 Q660.785 26.1121 664.228 28.6237 Q667.712 31.1352 669.373 35.9153 Z" fill="#000000" fill-rule="nonzero" fill-opacity="1"></path><path clip-path="url(#clip670)" d="M714.864 27.2059 L722.318 27.2059 L722.318 72.576 L714.864 72.576 L714.864 27.2059 M714.864 9.54393 L722.318 9.54393 L722.318 18.9825 L714.864 18.9825 L714.864 9.54393 Z" fill="#000000" fill-rule="nonzero" fill-opacity="1"></path><path clip-path="url(#clip670)" d="M766.838 28.5427 L766.838 35.5912 Q763.678 33.9709 760.275 33.1607 Q756.872 32.3505 753.227 32.3505 Q747.677 32.3505 744.882 34.0519 Q742.127 35.7533 742.127 39.156 Q742.127 41.7486 744.112 43.2475 Q746.097 44.7058 752.092 46.0426 L754.644 46.6097 Q762.584 48.3111 765.906 51.4303 Q769.268 54.509 769.268 60.0587 Q769.268 66.3781 764.245 70.0644 Q759.262 73.7508 750.512 73.7508 Q746.867 73.7508 742.897 73.0216 Q738.967 72.3329 734.592 70.9151 L734.592 63.2184 Q738.724 65.3654 742.735 66.4591 Q746.745 67.5124 750.674 67.5124 Q755.941 67.5124 758.776 65.73 Q761.612 63.9071 761.612 60.6258 Q761.612 57.5877 759.546 55.9673 Q757.521 54.3469 750.593 52.8481 L748.001 52.2405 Q741.074 50.7821 737.995 47.7845 Q734.916 44.7463 734.916 39.4801 Q734.916 33.0797 739.453 29.5959 Q743.99 26.1121 752.335 26.1121 Q756.467 26.1121 760.113 26.7198 Q763.759 27.3274 766.838 28.5427 Z" fill="#000000" fill-rule="nonzero" fill-opacity="1"></path><path clip-path="url(#clip670)" d="M810.061 28.5427 L810.061 35.5912 Q806.901 33.9709 803.498 33.1607 Q800.096 32.3505 796.45 32.3505 Q790.9 32.3505 788.105 34.0519 Q785.35 35.7533 785.35 39.156 Q785.35 41.7486 787.335 43.2475 Q789.32 44.7058 795.315 46.0426 L797.868 46.6097 Q805.807 48.3111 809.129 51.4303 Q812.491 54.509 812.491 60.0587 Q812.491 66.3781 807.468 70.0644 Q802.486 73.7508 793.736 73.7508 Q790.09 73.7508 786.12 73.0216 Q782.191 72.3329 777.816 70.9151 L777.816 63.2184 Q781.947 65.3654 785.958 66.4591 Q789.968 67.5124 793.898 67.5124 Q799.164 67.5124 801.999 65.73 Q804.835 63.9071 804.835 60.6258 Q804.835 57.5877 802.769 55.9673 Q800.744 54.3469 793.817 52.8481 L791.224 52.2405 Q784.297 50.7821 781.218 47.7845 Q778.14 44.7463 778.14 39.4801 Q778.14 33.0797 782.677 29.5959 Q787.214 26.1121 795.559 26.1121 Q799.69 26.1121 803.336 26.7198 Q806.982 27.3274 810.061 28.5427 Z" fill="#000000" fill-rule="nonzero" fill-opacity="1"></path><path clip-path="url(#clip670)" d="M824.36 27.2059 L831.814 27.2059 L831.814 72.576 L824.36 72.576 L824.36 27.2059 M824.36 9.54393 L831.814 9.54393 L831.814 18.9825 L824.36 18.9825 L824.36 9.54393 Z" fill="#000000" fill-rule="nonzero" fill-opacity="1"></path><path clip-path="url(#clip670)" d="M864.991 32.4315 Q858.996 32.4315 855.512 37.1306 Q852.028 41.7891 852.028 49.9314 Q852.028 58.0738 855.471 62.7728 Q858.955 67.4314 864.991 67.4314 Q870.946 67.4314 874.43 62.7323 Q877.913 58.0333 877.913 49.9314 Q877.913 41.8701 874.43 37.1711 Q870.946 32.4315 864.991 32.4315 M864.991 26.1121 Q874.713 26.1121 880.263 32.4315 Q885.813 38.7509 885.813 49.9314 Q885.813 61.0714 880.263 67.4314 Q874.713 73.7508 864.991 73.7508 Q855.228 73.7508 849.679 67.4314 Q844.169 61.0714 844.169 49.9314 Q844.169 38.7509 849.679 32.4315 Q855.228 26.1121 864.991 26.1121 Z" fill="#000000" fill-rule="nonzero" fill-opacity="1"></path><path clip-path="url(#clip670)" d="M935.882 45.1919 L935.882 72.576 L928.428 72.576 L928.428 45.4349 Q928.428 38.994 925.917 35.7938 Q923.405 32.5936 918.382 32.5936 Q912.346 32.5936 908.862 36.4419 Q905.379 40.2903 905.379 46.9338 L905.379 72.576 L897.884 72.576 L897.884 27.2059 L905.379 27.2059 L905.379 34.2544 Q908.052 30.163 911.657 28.1376 Q915.303 26.1121 920.043 26.1121 Q927.861 26.1121 931.871 30.9732 Q935.882 35.7938 935.882 45.1919 Z" fill="#000000" fill-rule="nonzero" fill-opacity="1"></path><path clip-path="url(#clip670)" d="M979.672 28.5427 L979.672 35.5912 Q976.512 33.9709 973.11 33.1607 Q969.707 32.3505 966.061 32.3505 Q960.511 32.3505 957.716 34.0519 Q954.962 35.7533 954.962 39.156 Q954.962 41.7486 956.947 43.2475 Q958.931 44.7058 964.927 46.0426 L967.479 46.6097 Q975.419 48.3111 978.74 51.4303 Q982.103 54.509 982.103 60.0587 Q982.103 66.3781 977.08 70.0644 Q972.097 73.7508 963.347 73.7508 Q959.701 73.7508 955.731 73.0216 Q951.802 72.3329 947.427 70.9151 L947.427 63.2184 Q951.559 65.3654 955.569 66.4591 Q959.58 67.5124 963.509 67.5124 Q968.775 67.5124 971.611 65.73 Q974.446 63.9071 974.446 60.6258 Q974.446 57.5877 972.38 55.9673 Q970.355 54.3469 963.428 52.8481 L960.835 52.2405 Q953.908 50.7821 950.83 47.7845 Q947.751 44.7463 947.751 39.4801 Q947.751 33.0797 952.288 29.5959 Q956.825 26.1121 965.17 26.1121 Q969.302 26.1121 972.948 26.7198 Q976.593 27.3274 979.672 28.5427 Z" fill="#000000" fill-rule="nonzero" fill-opacity="1"></path><path clip-path="url(#clip670)" d="M1015 27.2059 L1022.9 27.2059 L1037.07 65.2844 L1051.25 27.2059 L1059.15 27.2059 L1042.14 72.576 L1032.01 72.576 L1015 27.2059 Z" fill="#000000" fill-rule="nonzero" fill-opacity="1"></path><path clip-path="url(#clip670)" d="M1098.36 28.5427 L1098.36 35.5912 Q1095.2 33.9709 1091.8 33.1607 Q1088.4 32.3505 1084.75 32.3505 Q1079.2 32.3505 1076.41 34.0519 Q1073.65 35.7533 1073.65 39.156 Q1073.65 41.7486 1075.64 43.2475 Q1077.62 44.7058 1083.62 46.0426 L1086.17 46.6097 Q1094.11 48.3111 1097.43 51.4303 Q1100.79 54.509 1100.79 60.0587 Q1100.79 66.3781 1095.77 70.0644 Q1090.79 73.7508 1082.04 73.7508 Q1078.39 73.7508 1074.42 73.0216 Q1070.49 72.3329 1066.12 70.9151 L1066.12 63.2184 Q1070.25 65.3654 1074.26 66.4591 Q1078.27 67.5124 1082.2 67.5124 Q1087.47 67.5124 1090.3 65.73 Q1093.14 63.9071 1093.14 60.6258 Q1093.14 57.5877 1091.07 55.9673 Q1089.05 54.3469 1082.12 52.8481 L1079.53 52.2405 Q1072.6 50.7821 1069.52 47.7845 Q1066.44 44.7463 1066.44 39.4801 Q1066.44 33.0797 1070.98 29.5959 Q1075.52 26.1121 1083.86 26.1121 Q1087.99 26.1121 1091.64 26.7198 Q1095.28 27.3274 1098.36 28.5427 Z" fill="#000000" fill-rule="nonzero" fill-opacity="1"></path><path clip-path="url(#clip670)" d="M1167.96 28.5427 L1167.96 35.5912 Q1164.8 33.9709 1161.4 33.1607 Q1157.99 32.3505 1154.35 32.3505 Q1148.8 32.3505 1146 34.0519 Q1143.25 35.7533 1143.25 39.156 Q1143.25 41.7486 1145.23 43.2475 Q1147.22 44.7058 1153.21 46.0426 L1155.76 46.6097 Q1163.7 48.3111 1167.03 51.4303 Q1170.39 54.509 1170.39 60.0587 Q1170.39 66.3781 1165.37 70.0644 Q1160.38 73.7508 1151.63 73.7508 Q1147.99 73.7508 1144.02 73.0216 Q1140.09 72.3329 1135.71 70.9151 L1135.71 63.2184 Q1139.84 65.3654 1143.86 66.4591 Q1147.87 67.5124 1151.8 67.5124 Q1157.06 67.5124 1159.9 65.73 Q1162.73 63.9071 1162.73 60.6258 Q1162.73 57.5877 1160.67 55.9673 Q1158.64 54.3469 1151.71 52.8481 L1149.12 52.2405 Q1142.19 50.7821 1139.12 47.7845 Q1136.04 44.7463 1136.04 39.4801 Q1136.04 33.0797 1140.57 29.5959 Q1145.11 26.1121 1153.46 26.1121 Q1157.59 26.1121 1161.23 26.7198 Q1164.88 27.3274 1167.96 28.5427 Z" fill="#000000" fill-rule="nonzero" fill-opacity="1"></path><path clip-path="url(#clip670)" d="M1189.47 65.7705 L1189.47 89.8329 L1181.97 89.8329 L1181.97 27.2059 L1189.47 27.2059 L1189.47 34.0924 Q1191.82 30.0415 1195.38 28.0971 Q1198.99 26.1121 1203.97 26.1121 Q1212.23 26.1121 1217.38 32.6746 Q1222.56 39.2371 1222.56 49.9314 Q1222.56 60.6258 1217.38 67.1883 Q1212.23 73.7508 1203.97 73.7508 Q1198.99 73.7508 1195.38 71.8063 Q1191.82 69.8214 1189.47 65.7705 M1214.83 49.9314 Q1214.83 41.7081 1211.42 37.0496 Q1208.06 32.3505 1202.15 32.3505 Q1196.23 32.3505 1192.83 37.0496 Q1189.47 41.7081 1189.47 49.9314 Q1189.47 58.1548 1192.83 62.8538 Q1196.23 67.5124 1202.15 67.5124 Q1208.06 67.5124 1211.42 62.8538 Q1214.83 58.1548 1214.83 49.9314 Z" fill="#000000" fill-rule="nonzero" fill-opacity="1"></path><path clip-path="url(#clip670)" d="M1273.73 48.0275 L1273.73 51.6733 L1239.46 51.6733 Q1239.94 59.3701 1244.07 63.421 Q1248.25 67.4314 1255.66 67.4314 Q1259.95 67.4314 1263.96 66.3781 Q1268.02 65.3249 1271.99 63.2184 L1271.99 70.267 Q1267.97 71.9684 1263.76 72.8596 Q1259.55 73.7508 1255.21 73.7508 Q1244.36 73.7508 1238 67.4314 Q1231.68 61.1119 1231.68 50.3365 Q1231.68 39.1965 1237.67 32.6746 Q1243.71 26.1121 1253.92 26.1121 Q1263.07 26.1121 1268.38 32.0264 Q1273.73 37.9003 1273.73 48.0275 M1266.27 45.84 Q1266.19 39.7232 1262.83 36.0774 Q1259.51 32.4315 1254 32.4315 Q1247.76 32.4315 1243.99 35.9558 Q1240.27 39.4801 1239.7 45.8805 L1266.27 45.84 Z" fill="#000000" fill-rule="nonzero" fill-opacity="1"></path><path clip-path="url(#clip670)" d="M1324.77 48.0275 L1324.77 51.6733 L1290.5 51.6733 Q1290.98 59.3701 1295.12 63.421 Q1299.29 67.4314 1306.7 67.4314 Q1311 67.4314 1315.01 66.3781 Q1319.06 65.3249 1323.03 63.2184 L1323.03 70.267 Q1319.02 71.9684 1314.8 72.8596 Q1310.59 73.7508 1306.26 73.7508 Q1295.4 73.7508 1289.04 67.4314 Q1282.72 61.1119 1282.72 50.3365 Q1282.72 39.1965 1288.72 32.6746 Q1294.75 26.1121 1304.96 26.1121 Q1314.11 26.1121 1319.42 32.0264 Q1324.77 37.9003 1324.77 48.0275 M1317.31 45.84 Q1317.23 39.7232 1313.87 36.0774 Q1310.55 32.4315 1305.04 32.4315 Q1298.8 32.4315 1295.03 35.9558 Q1291.31 39.4801 1290.74 45.8805 L1317.31 45.84 Z" fill="#000000" fill-rule="nonzero" fill-opacity="1"></path><path clip-path="url(#clip670)" d="M1366.86 34.0924 L1366.86 9.54393 L1374.31 9.54393 L1374.31 72.576 L1366.86 72.576 L1366.86 65.7705 Q1364.51 69.8214 1360.9 71.8063 Q1357.34 73.7508 1352.31 73.7508 Q1344.09 73.7508 1338.91 67.1883 Q1333.76 60.6258 1333.76 49.9314 Q1333.76 39.2371 1338.91 32.6746 Q1344.09 26.1121 1352.31 26.1121 Q1357.34 26.1121 1360.9 28.0971 Q1364.51 30.0415 1366.86 34.0924 M1341.46 49.9314 Q1341.46 58.1548 1344.82 62.8538 Q1348.22 67.5124 1354.14 67.5124 Q1360.05 67.5124 1363.45 62.8538 Q1366.86 58.1548 1366.86 49.9314 Q1366.86 41.7081 1363.45 37.0496 Q1360.05 32.3505 1354.14 32.3505 Q1348.22 32.3505 1344.82 37.0496 Q1341.46 41.7081 1341.46 49.9314 Z" fill="#000000" fill-rule="nonzero" fill-opacity="1"></path><path clip-path="url(#clip670)" d="M1412.27 46.9338 L1487.13 46.9338 L1487.13 52.7671 L1412.27 52.7671 L1412.27 46.9338 Z" fill="#000000" fill-rule="nonzero" fill-opacity="1"></path><path clip-path="url(#clip670)" d="M1542.95 32.4315 Q1536.95 32.4315 1533.47 37.1306 Q1529.99 41.7891 1529.99 49.9314 Q1529.99 58.0738 1533.43 62.7728 Q1536.91 67.4314 1542.95 67.4314 Q1548.91 67.4314 1552.39 62.7323 Q1555.87 58.0333 1555.87 49.9314 Q1555.87 41.8701 1552.39 37.1711 Q1548.91 32.4315 1542.95 32.4315 M1542.95 26.1121 Q1552.67 26.1121 1558.22 32.4315 Q1563.77 38.7509 1563.77 49.9314 Q1563.77 61.0714 1558.22 67.4314 Q1552.67 73.7508 1542.95 73.7508 Q1533.19 73.7508 1527.64 67.4314 Q1522.13 61.0714 1522.13 49.9314 Q1522.13 38.7509 1527.64 32.4315 Q1533.19 26.1121 1542.95 26.1121 Z" fill="#000000" fill-rule="nonzero" fill-opacity="1"></path><path clip-path="url(#clip670)" d="M1602.42 34.1734 Q1601.16 33.4443 1599.66 33.1202 Q1598.2 32.7556 1596.42 32.7556 Q1590.1 32.7556 1586.7 36.8875 Q1583.34 40.9789 1583.34 48.6757 L1583.34 72.576 L1575.84 72.576 L1575.84 27.2059 L1583.34 27.2059 L1583.34 34.2544 Q1585.69 30.1225 1589.45 28.1376 Q1593.22 26.1121 1598.61 26.1121 Q1599.38 26.1121 1600.31 26.2337 Q1601.24 26.3147 1602.38 26.5172 L1602.42 34.1734 Z" fill="#000000" fill-rule="nonzero" fill-opacity="1"></path><path clip-path="url(#clip670)" d="M1610.24 27.2059 L1617.69 27.2059 L1617.69 72.576 L1610.24 72.576 L1610.24 27.2059 M1610.24 9.54393 L1617.69 9.54393 L1617.69 18.9825 L1610.24 18.9825 L1610.24 9.54393 Z" fill="#000000" fill-rule="nonzero" fill-opacity="1"></path><path clip-path="url(#clip670)" d="M1663.14 49.3643 Q1663.14 41.2625 1659.78 36.8065 Q1656.46 32.3505 1650.42 32.3505 Q1644.43 32.3505 1641.06 36.8065 Q1637.74 41.2625 1637.74 49.3643 Q1637.74 57.4256 1641.06 61.8816 Q1644.43 66.3376 1650.42 66.3376 Q1656.46 66.3376 1659.78 61.8816 Q1663.14 57.4256 1663.14 49.3643 M1670.59 66.9452 Q1670.59 78.5308 1665.45 84.1616 Q1660.31 89.8329 1649.69 89.8329 Q1645.76 89.8329 1642.28 89.2252 Q1638.79 88.6581 1635.51 87.4428 L1635.51 80.1917 Q1638.79 81.9741 1641.99 82.8248 Q1645.2 83.6755 1648.52 83.6755 Q1655.85 83.6755 1659.49 79.8271 Q1663.14 76.0193 1663.14 68.282 L1663.14 64.5957 Q1660.83 68.6061 1657.23 70.5911 Q1653.62 72.576 1648.6 72.576 Q1640.25 72.576 1635.15 66.2161 Q1630.04 59.8562 1630.04 49.3643 Q1630.04 38.832 1635.15 32.472 Q1640.25 26.1121 1648.6 26.1121 Q1653.62 26.1121 1657.23 28.0971 Q1660.83 30.082 1663.14 34.0924 L1663.14 27.2059 L1670.59 27.2059 L1670.59 66.9452 Z" fill="#000000" fill-rule="nonzero" fill-opacity="1"></path><path clip-path="url(#clip670)" d="M1685.95 27.2059 L1693.4 27.2059 L1693.4 72.576 L1685.95 72.576 L1685.95 27.2059 M1685.95 9.54393 L1693.4 9.54393 L1693.4 18.9825 L1685.95 18.9825 L1685.95 9.54393 Z" fill="#000000" fill-rule="nonzero" fill-opacity="1"></path><path clip-path="url(#clip670)" d="M1746.71 45.1919 L1746.71 72.576 L1739.26 72.576 L1739.26 45.4349 Q1739.26 38.994 1736.75 35.7938 Q1734.23 32.5936 1729.21 32.5936 Q1723.18 32.5936 1719.69 36.4419 Q1716.21 40.2903 1716.21 46.9338 L1716.21 72.576 L1708.71 72.576 L1708.71 27.2059 L1716.21 27.2059 L1716.21 34.2544 Q1718.88 30.163 1722.49 28.1376 Q1726.13 26.1121 1730.87 26.1121 Q1738.69 26.1121 1742.7 30.9732 Q1746.71 35.7938 1746.71 45.1919 Z" fill="#000000" fill-rule="nonzero" fill-opacity="1"></path><path clip-path="url(#clip670)" d="M1782.2 49.7694 Q1773.16 49.7694 1769.68 51.8354 Q1766.2 53.9013 1766.2 58.8839 Q1766.2 62.8538 1768.79 65.2034 Q1771.42 67.5124 1775.92 67.5124 Q1782.12 67.5124 1785.84 63.1374 Q1789.61 58.7219 1789.61 51.4303 L1789.61 49.7694 L1782.2 49.7694 M1797.06 46.6907 L1797.06 72.576 L1789.61 72.576 L1789.61 65.6895 Q1787.06 69.8214 1783.25 71.8063 Q1779.44 73.7508 1773.93 73.7508 Q1766.97 73.7508 1762.83 69.8619 Q1758.74 65.9325 1758.74 59.3701 Q1758.74 51.7138 1763.85 47.825 Q1768.99 43.9361 1779.16 43.9361 L1789.61 43.9361 L1789.61 43.2069 Q1789.61 38.0623 1786.21 35.2672 Q1782.84 32.4315 1776.73 32.4315 Q1772.84 32.4315 1769.15 33.3632 Q1765.47 34.295 1762.06 36.1584 L1762.06 29.2718 Q1766.16 27.692 1770 26.9223 Q1773.85 26.1121 1777.5 26.1121 Q1787.34 26.1121 1792.2 31.2163 Q1797.06 36.3204 1797.06 46.6907 Z" fill="#000000" fill-rule="nonzero" fill-opacity="1"></path><path clip-path="url(#clip670)" d="M1812.42 9.54393 L1819.87 9.54393 L1819.87 72.576 L1812.42 72.576 L1812.42 9.54393 Z" fill="#000000" fill-rule="nonzero" fill-opacity="1"></path><path clip-path="url(#clip670)" d="M1891.69 34.0924 L1891.69 9.54393 L1899.15 9.54393 L1899.15 72.576 L1891.69 72.576 L1891.69 65.7705 Q1889.34 69.8214 1885.74 71.8063 Q1882.17 73.7508 1877.15 73.7508 Q1868.93 73.7508 1863.74 67.1883 Q1858.6 60.6258 1858.6 49.9314 Q1858.6 39.2371 1863.74 32.6746 Q1868.93 26.1121 1877.15 26.1121 Q1882.17 26.1121 1885.74 28.0971 Q1889.34 30.0415 1891.69 34.0924 M1866.29 49.9314 Q1866.29 58.1548 1869.66 62.8538 Q1873.06 67.5124 1878.97 67.5124 Q1884.89 67.5124 1888.29 62.8538 Q1891.69 58.1548 1891.69 49.9314 Q1891.69 41.7081 1888.29 37.0496 Q1884.89 32.3505 1878.97 32.3505 Q1873.06 32.3505 1869.66 37.0496 Q1866.29 41.7081 1866.29 49.9314 Z" fill="#000000" fill-rule="nonzero" fill-opacity="1"></path><path clip-path="url(#clip670)" d="M1935.12 49.7694 Q1926.08 49.7694 1922.6 51.8354 Q1919.12 53.9013 1919.12 58.8839 Q1919.12 62.8538 1921.71 65.2034 Q1924.34 67.5124 1928.84 67.5124 Q1935.04 67.5124 1938.76 63.1374 Q1942.53 58.7219 1942.53 51.4303 L1942.53 49.7694 L1935.12 49.7694 M1949.99 46.6907 L1949.99 72.576 L1942.53 72.576 L1942.53 65.6895 Q1939.98 69.8214 1936.17 71.8063 Q1932.36 73.7508 1926.85 73.7508 Q1919.89 73.7508 1915.76 69.8619 Q1911.66 65.9325 1911.66 59.3701 Q1911.66 51.7138 1916.77 47.825 Q1921.91 43.9361 1932.08 43.9361 L1942.53 43.9361 L1942.53 43.2069 Q1942.53 38.0623 1939.13 35.2672 Q1935.77 32.4315 1929.65 32.4315 Q1925.76 32.4315 1922.07 33.3632 Q1918.39 34.295 1914.99 36.1584 L1914.99 29.2718 Q1919.08 27.692 1922.93 26.9223 Q1926.77 26.1121 1930.42 26.1121 Q1940.26 26.1121 1945.12 31.2163 Q1949.99 36.3204 1949.99 46.6907 Z" fill="#000000" fill-rule="nonzero" fill-opacity="1"></path><path clip-path="url(#clip670)" d="M1972.71 14.324 L1972.71 27.2059 L1988.06 27.2059 L1988.06 32.9987 L1972.71 32.9987 L1972.71 57.6282 Q1972.71 63.1779 1974.21 64.7578 Q1975.75 66.3376 1980.41 66.3376 L1988.06 66.3376 L1988.06 72.576 L1980.41 72.576 Q1971.78 72.576 1968.5 69.3758 Q1965.22 66.1351 1965.22 57.6282 L1965.22 32.9987 L1959.75 32.9987 L1959.75 27.2059 L1965.22 27.2059 L1965.22 14.324 L1972.71 14.324 Z" fill="#000000" fill-rule="nonzero" fill-opacity="1"></path><path clip-path="url(#clip670)" d="M2018.49 49.7694 Q2009.45 49.7694 2005.97 51.8354 Q2002.48 53.9013 2002.48 58.8839 Q2002.48 62.8538 2005.08 65.2034 Q2007.71 67.5124 2012.21 67.5124 Q2018.4 67.5124 2022.13 63.1374 Q2025.9 58.7219 2025.9 51.4303 L2025.9 49.7694 L2018.49 49.7694 M2033.35 46.6907 L2033.35 72.576 L2025.9 72.576 L2025.9 65.6895 Q2023.35 69.8214 2019.54 71.8063 Q2015.73 73.7508 2010.22 73.7508 Q2003.25 73.7508 1999.12 69.8619 Q1995.03 65.9325 1995.03 59.3701 Q1995.03 51.7138 2000.14 47.825 Q2005.28 43.9361 2015.45 43.9361 L2025.9 43.9361 L2025.9 43.2069 Q2025.9 38.0623 2022.5 35.2672 Q2019.13 32.4315 2013.02 32.4315 Q2009.13 32.4315 2005.44 33.3632 Q2001.76 34.295 1998.35 36.1584 L1998.35 29.2718 Q2002.44 27.692 2006.29 26.9223 Q2010.14 26.1121 2013.79 26.1121 Q2023.63 26.1121 2028.49 31.2163 Q2033.35 36.3204 2033.35 46.6907 Z" fill="#000000" fill-rule="nonzero" fill-opacity="1"></path><circle clip-path="url(#clip672)" cx="321.708" cy="160.256" r="14.4" fill="#009af9" fill-rule="evenodd" fill-opacity="1" stroke="#000000" stroke-opacity="1" stroke-width="3.2"></circle>
<circle clip-path="url(#clip672)" cx="425.492" cy="503.905" r="14.4" fill="#009af9" fill-rule="evenodd" fill-opacity="1" stroke="#000000" stroke-opacity="1" stroke-width="3.2"></circle>
<circle clip-path="url(#clip672)" cx="529.275" cy="847.554" r="14.4" fill="#009af9" fill-rule="evenodd" fill-opacity="1" stroke="#000000" stroke-opacity="1" stroke-width="3.2"></circle>
<circle clip-path="url(#clip672)" cx="633.059" cy="1122.47" r="14.4" fill="#009af9" fill-rule="evenodd" fill-opacity="1" stroke="#000000" stroke-opacity="1" stroke-width="3.2"></circle>
<circle clip-path="url(#clip672)" cx="736.843" cy="1225.57" r="14.4" fill="#009af9" fill-rule="evenodd" fill-opacity="1" stroke="#000000" stroke-opacity="1" stroke-width="3.2"></circle>
<circle clip-path="url(#clip672)" cx="840.627" cy="1328.66" r="14.4" fill="#009af9" fill-rule="evenodd" fill-opacity="1" stroke="#000000" stroke-opacity="1" stroke-width="3.2"></circle>
<circle clip-path="url(#clip672)" cx="944.41" cy="1363.03" r="14.4" fill="#009af9" fill-rule="evenodd" fill-opacity="1" stroke="#000000" stroke-opacity="1" stroke-width="3.2"></circle>
<circle clip-path="url(#clip672)" cx="1048.19" cy="1383.65" r="14.4" fill="#009af9" fill-rule="evenodd" fill-opacity="1" stroke="#000000" stroke-opacity="1" stroke-width="3.2"></circle>
<circle clip-path="url(#clip672)" cx="1151.98" cy="1385.02" r="14.4" fill="#009af9" fill-rule="evenodd" fill-opacity="1" stroke="#000000" stroke-opacity="1" stroke-width="3.2"></circle>
<circle clip-path="url(#clip672)" cx="1255.76" cy="1386.4" r="14.4" fill="#009af9" fill-rule="evenodd" fill-opacity="1" stroke="#000000" stroke-opacity="1" stroke-width="3.2"></circle>
<circle clip-path="url(#clip672)" cx="1359.55" cy="1386.4" r="14.4" fill="#009af9" fill-rule="evenodd" fill-opacity="1" stroke="#000000" stroke-opacity="1" stroke-width="3.2"></circle>
<circle clip-path="url(#clip672)" cx="1463.33" cy="1386.4" r="14.4" fill="#009af9" fill-rule="evenodd" fill-opacity="1" stroke="#000000" stroke-opacity="1" stroke-width="3.2"></circle>
<circle clip-path="url(#clip672)" cx="1567.11" cy="1385.02" r="14.4" fill="#009af9" fill-rule="evenodd" fill-opacity="1" stroke="#000000" stroke-opacity="1" stroke-width="3.2"></circle>
<circle clip-path="url(#clip672)" cx="1670.9" cy="1369.9" r="14.4" fill="#009af9" fill-rule="evenodd" fill-opacity="1" stroke="#000000" stroke-opacity="1" stroke-width="3.2"></circle>
<circle clip-path="url(#clip672)" cx="1774.68" cy="1356.15" r="14.4" fill="#009af9" fill-rule="evenodd" fill-opacity="1" stroke="#000000" stroke-opacity="1" stroke-width="3.2"></circle>
<circle clip-path="url(#clip672)" cx="1878.46" cy="1328.66" r="14.4" fill="#009af9" fill-rule="evenodd" fill-opacity="1" stroke="#000000" stroke-opacity="1" stroke-width="3.2"></circle>
<circle clip-path="url(#clip672)" cx="1982.25" cy="1294.3" r="14.4" fill="#009af9" fill-rule="evenodd" fill-opacity="1" stroke="#000000" stroke-opacity="1" stroke-width="3.2"></circle>
<circle clip-path="url(#clip672)" cx="2086.03" cy="1259.93" r="14.4" fill="#009af9" fill-rule="evenodd" fill-opacity="1" stroke="#000000" stroke-opacity="1" stroke-width="3.2"></circle>
<circle clip-path="url(#clip672)" cx="2189.82" cy="1191.2" r="14.4" fill="#009af9" fill-rule="evenodd" fill-opacity="1" stroke="#000000" stroke-opacity="1" stroke-width="3.2"></circle>
<circle clip-path="url(#clip672)" cx="2293.6" cy="1053.74" r="14.4" fill="#009af9" fill-rule="evenodd" fill-opacity="1" stroke="#000000" stroke-opacity="1" stroke-width="3.2"></circle>
</svg>